<svg xmlns="http://www.w3.org/2000/svg" viewBox="0 0 105.25 24.89"><defs><style>.cls-1{fill:#6a6d6f;}</style></defs><g id="Layer_2" data-name="Layer 2"><g id="a"><path class="cls-1" d="M31,23.19a2.13,2.13,0,0,1-2.27,1.69,2.45,2.45,0,0,1-2.5-2.76,2.51,2.51,0,0,1,2.55-2.81A2,2,0,0,1,31,21H30a1.17,1.17,0,0,0-1.25-.9c-1,0-1.46.94-1.46,2s.38,2,1.49,2A1.19,1.19,0,0,0,30,23.2h1Zm7.09-1.11a2.57,2.57,0,0,1-2.62,2.81A2.48,2.48,0,0,1,33,22.1a2.58,2.58,0,0,1,2.62-2.79,2.51,2.51,0,0,1,2.55,2.76Zm-4.13,0c0,1.1.51,2,1.54,2s1.53-.92,1.53-2-.47-1.94-1.54-1.94S34,21,34,22.08Zm6.35-2.69h1V24h2.74l-.12.84H40.35Zm5.66,0h1V24h2.74l-.12.84H46Zm9.28,3H52.67V24h2.89l-.13.84H51.67V19.4h3.74v.85H52.67v1.33h2.62v.84Zm6.88.78a2.13,2.13,0,0,1-2.27,1.69,2.45,2.45,0,0,1-2.5-2.76A2.51,2.51,0,0,1,60,19.31,2,2,0,0,1,62.17,21h-1a1.17,1.17,0,0,0-1.25-.9c-1,0-1.46.94-1.46,2s.38,2,1.49,2a1.19,1.19,0,0,0,1.21-.88h1Zm3.3-3H63.79v-.85h4.37v.85H66.48v4.57h-1V20.24Zm5.63-.85v5.42h-1V19.39Zm7.41,2.69a2.57,2.57,0,0,1-2.62,2.81,2.48,2.48,0,0,1-2.55-2.79A2.58,2.58,0,0,1,76,19.31a2.51,2.51,0,0,1,2.55,2.76Zm-4.13,0c0,1.1.51,2,1.54,2s1.53-.92,1.53-2-.47-1.94-1.54-1.94S74.38,21,74.38,22.08Zm6.35,2.73V19.39H82c.71,1.24,2.11,3.6,2.38,4.19h0c0-.61,0-1.52,0-2.4V19.39h.93v5.42H84.06c-.63-1.1-2.15-3.75-2.44-4.37h0c0,.52,0,1.57,0,2.55v1.82ZM17.52,13.86h2.63V.27H17.52ZM32.35,7.65c1.27,0,2.68.46,2.9,2a2.76,2.76,0,0,1-1.9,3c-2.42.75-5.35-1.29-6.51-3.18s-2-5.29-.12-7.21a3.84,3.84,0,0,1,6.35,1.3l3-.73A6.64,6.64,0,0,0,28.28.41a6.93,6.93,0,0,0-5.14,6.43,6.88,6.88,0,0,0,4.78,6.69,8.44,8.44,0,0,0,4.34.37c1.33-.22,3-.78,3.61-2.19l1.86,2.14h.32V7H31.73l.61.71ZM52,.27v11L42.41.27H38.72l2.14,2.46V13.85h1v-10l8.68,10H53V.26H52ZM13.24.27v11L3.69.27H0L11.81,13.86h2.42V.27Zm52.88,1-.86-1h-9V13.86h9.87l-.86-1H58.88V7.78h5.7v-1h-5.7V1.27h7.24Zm12.74-1H67.24l.86,1h4.12v12.6h2.63V1.26h4.87Zm2,0,.86,1h4.12v12.6h2.63V1.26h5v-1Zm24.4,1-.86-1h-9V13.86h9.87l-.86-1H98V7.78h5.7v-1H98V1.27h7.24Z"/></g></g></svg>