<svg xmlns="http://www.w3.org/2000/svg" viewBox="0 0 78 18.45"><defs><style>.cls-1{fill:#6a6d6f;}</style></defs><g id="Layer_2" data-name="Layer 2"><g id="a"><path class="cls-1" d="M56.61,13.15a6.68,6.68,0,0,1-6,2.52c-2.74-.43-5.33-2.4-5.33-7.09A11.73,11.73,0,0,1,46,4.21,5.35,5.35,0,0,1,50.63.86a3.9,3.9,0,0,1,2.72.77,1.94,1.94,0,0,0-1,1.13,2.14,2.14,0,0,0,1.21,2.79,2.27,2.27,0,0,0,2.86-1.28A2.24,2.24,0,0,0,56.05,2c-.51-.58-1.92-2-5.25-2C44.45,0,41,4.54,41,9.11h0v0h0c0,5.11,3.85,9.32,8.58,9.32s7-3.1,7.52-5l-.47-.27Z"/><path class="cls-1" d="M11.76.23V.85c3.41.33,2.16,3.26,1.23,5.74-.72,1.9-1.81,4.54-2.35,5.86h0C9.74,10.24,7.28,4.21,7,3.61,6.68,2.7,6.06.84,8.17.84V.24H0v.6C.67.84,1.59.69,2.44,2.72c0,0,.28.43,6.57,15.39h.44L11.12,14l3-7.27a18.52,18.52,0,0,1,2.75-5A2.4,2.4,0,0,1,19,.84V.24H11.76Z"/><path class="cls-1" d="M28.68,17.32c-3,0-4.39-1.54-4.46-8h0C24.3,2.82,25.72,1,28.68,1S33,2.82,33.09,9.28h0c-.08,6.5-1.47,8-4.41,8m8.86-8c0-5-3.22-9.28-8.86-9.28s-8.85,4.26-8.86,9.28v0c0,5,3.21,9,8.86,9s8.86-4,8.86-9v0"/><path class="cls-1" d="M69.14,17.32c-3,0-4.39-1.54-4.46-8h0C64.76,2.82,66.18,1,69.14,1s4.33,1.79,4.41,8.25h0c-.08,6.5-1.47,8-4.41,8m8.86-8C78,4.34,74.89.15,69.41,0h-.54c-5.47.14-8.58,4.33-8.59,9.27v0c0,5,3.21,9,8.86,9s8.86-4,8.86-9v0"/></g></g></svg>