<?xml version="1.0" encoding="UTF-8"?><svg xmlns="http://www.w3.org/2000/svg" viewBox="0 0 135 53.43"><defs><style>.d{fill-rule:evenodd;}.d,.e{fill:#6a6d6f;}</style></defs><g id="a"/><g id="b"><g id="c"><g><g><g><path class="e" d="M23.64,53.36h-.77v-2.32h-2.99v2.32h-.77v-5.33h.77v2.31h2.99v-2.31h.77v5.33Z"/><path class="e" d="M32.27,50.69c0,1.53-1.17,2.74-2.92,2.74s-2.81-1.23-2.81-2.72,1.03-2.75,2.85-2.75,2.88,1.3,2.88,2.73Zm-4.94,.02c0,1.21,.95,2.01,2.07,2.01,.57,0,1.19-.23,1.56-.63,.34-.37,.53-.95,.53-1.41,0-.88-.67-2-2.06-2-1.49,0-2.1,1.14-2.1,2.03Z"/><path class="e" d="M38.66,48.7h-1.86v4.66h-.77v-4.66h-1.83v-.67h4.46v.67Z"/><path class="e" d="M44.37,48.71h-2.26v1.63h2.18v.68h-2.18v1.66h2.33v.69h-3.1v-5.33h3.03v.68Z"/><path class="e" d="M48.14,52.67h2.4v.7h-3.17v-5.33h.77v4.64Z"/><path class="e" d="M55.7,49.2c-.45-.44-.89-.55-1.25-.55-.52,0-.84,.28-.84,.62,0,.45,.31,.64,1.33,1.24,.23,.13,.48,.32,.69,.59,.16,.21,.29,.5,.29,.88,0,.84-.6,1.45-1.55,1.45-.52,0-1.02-.18-1.44-.49v-.97c.16,.2,.63,.78,1.44,.78,.4,0,.83-.25,.83-.7s-.45-.77-.7-.92c-.84-.51-1.09-.66-1.32-.95-.16-.21-.27-.46-.27-.8,0-.81,.61-1.41,1.57-1.41,.44,0,.86,.13,1.23,.38v.87Z"/><path class="e" d="M67.11,53.36h-.98l-.62-.73c-.33,.28-.37,.31-.47,.38-.32,.2-.8,.42-1.24,.42-.66,0-1.33-.48-1.33-1.25,0-.52,.3-1.04,1.26-1.59-.2-.21-.6-.7-.6-1.24s.34-1.23,1.33-1.23,1.33,.67,1.33,1.18c0,.71-.66,1.17-.98,1.4l.75,.86c.11-.13,.32-.35,.57-.86h.77c-.26,.68-.66,1.16-.87,1.4l1.08,1.25Zm-2.06-1.26l-.87-1-.34,.23c-.33,.23-.59,.48-.59,.81,0,.27,.26,.55,.66,.55,.34,0,.73-.22,.97-.45l.17-.16Zm.03-2.78c0-.3-.25-.55-.6-.55-.33,0-.59,.22-.59,.51,0,.43,.44,.86,.49,.91,.49-.3,.7-.58,.7-.87Z"/><path class="e" d="M75.19,48.03c.25,0,.58,.02,.91,.17,.57,.24,.84,.77,.84,1.31,0,.62-.31,1.09-.89,1.31,.48,.32,.78,.81,1.19,1.47,.23,.37,.36,.55,.73,1.06h-.91c-.18-.26-.92-1.42-1.09-1.65-.52-.67-.78-.67-1.15-.67h-.2v2.32h-.76v-5.33h1.34Zm-.58,.65v1.68h.3c.12,0,.53,0,.74-.08,.36-.14,.51-.48,.51-.77,0-.31-.16-.59-.41-.71-.2-.09-.45-.13-.91-.13h-.23Z"/><path class="e" d="M83.53,48.71h-2.26v1.63h2.18v.68h-2.18v1.66h2.33v.69h-3.1v-5.33h3.03v.68Z"/><path class="e" d="M89.08,49.2c-.45-.44-.89-.55-1.25-.55-.52,0-.84,.28-.84,.62,0,.45,.31,.64,1.33,1.24,.23,.13,.48,.32,.69,.59,.16,.21,.29,.5,.29,.88,0,.84-.6,1.45-1.55,1.45-.52,0-1.02-.18-1.44-.49v-.97c.16,.2,.63,.78,1.44,.78,.4,0,.83-.25,.83-.7s-.45-.77-.7-.92c-.84-.51-1.09-.66-1.32-.95-.16-.21-.27-.46-.27-.8,0-.81,.61-1.41,1.57-1.41,.44,0,.86,.13,1.23,.38v.87Z"/><path class="e" d="M97.58,50.69c0,1.53-1.17,2.74-2.92,2.74s-2.81-1.23-2.81-2.72,1.03-2.75,2.85-2.75,2.88,1.3,2.88,2.73Zm-4.94,.02c0,1.21,.95,2.01,2.07,2.01,.57,0,1.19-.23,1.56-.63,.34-.37,.53-.95,.53-1.41,0-.88-.67-2-2.06-2-1.49,0-2.1,1.14-2.1,2.03Z"/><path class="e" d="M101.84,48.03c.25,0,.58,.02,.91,.17,.57,.24,.84,.77,.84,1.31,0,.62-.31,1.09-.89,1.31,.48,.32,.78,.81,1.19,1.47,.23,.37,.36,.55,.73,1.06h-.91c-.18-.26-.92-1.42-1.09-1.65-.52-.67-.78-.67-1.15-.67h-.2v2.32h-.76v-5.33h1.34Zm-.58,.65v1.68h.3c.12,0,.53,0,.74-.08,.36-.14,.51-.48,.51-.77,0-.31-.16-.59-.41-.71-.2-.09-.45-.13-.91-.13h-.23Z"/><path class="e" d="M110.46,48.7h-1.86v4.66h-.77v-4.66h-1.83v-.67h4.46v.67Z"/><path class="e" d="M115.67,49.2c-.45-.44-.89-.55-1.25-.55-.52,0-.84,.28-.84,.62,0,.45,.31,.64,1.33,1.24,.23,.13,.48,.32,.69,.59,.16,.21,.29,.5,.29,.88,0,.84-.6,1.45-1.55,1.45-.52,0-1.02-.18-1.44-.49v-.97c.16,.2,.63,.78,1.44,.78,.4,0,.83-.25,.83-.7s-.45-.77-.7-.92c-.84-.51-1.09-.66-1.32-.95-.16-.21-.27-.46-.27-.8,0-.81,.61-1.41,1.57-1.41,.44,0,.86,.13,1.23,.38v.87Z"/></g><g><path class="e" d="M80.96,42.13v-.29c-.2-.02-.82,0-.82-.77v-8.25c0-.77,.62-.75,.82-.76v-.3h-2.95v.3c.2,.02,.82,0,.82,.77v8.25c0,.77-.62,.75-.82,.76v.29h2.95Z"/><path class="e" d="M3.13,42.13v-.32c-.21-.02-.88,0-.88-.83v-9.5c0-.83,.67-.81,.88-.83v-.32H0v.32c.21,.02,.88,0,.88,.83v9.5c0,.83-.67,.81-.88,.82v.32H3.13Z"/><path class="e" d="M135,42.13v-1.7h-.3c-.01,.2,0,.82-.77,.82h-2.62v-8.43c0-.77,.62-.75,.82-.76v-.3h-2.95v.3c.2,.02,.82,0,.82,.77v8.25c0,.77-.62,.75-.82,.76v.29h5.81Z"/><path class="d" d="M54.39,41.56c.78,0,2.59-.46,2.59-4.36,0-3.02-1.44-4.9-3.28-4.9-1.28,0-2.75,.86-2.75,4.22,0,2.81,1.35,5.03,3.41,5.03m-.45,.78c-3.08,0-4.33-2.96-4.33-5.4s1.22-5.4,4.44-5.4c2.68,0,4.34,2,4.34,5.15s-1.72,5.65-4.45,5.65"/><path class="e" d="M89.44,31.76v.3c.2,.02,.82,0,.82,.76v6.93l-5.32-7.99h-1.75v.3c.2,.02,.82,0,.82,.76v8.25c0,.77-.62,.75-.82,.77v.29h2.57v-.29c-.2-.02-.82,0-.82-.76v-6.88l5.32,7.94h.93v-9.31c0-.77,.62-.75,.82-.77v-.3h-2.57Z"/><path class="e" d="M108.94,31.76v.3c.2,.02,.82,0,.82,.76v6.93l-5.32-7.99h-1.75v.3c.2,.02,.82,0,.82,.76v8.25c0,.77-.62,.75-.82,.77v.29h2.57v-.29c-.2-.02-.82,0-.82-.76v-6.88l5.32,7.94h.93v-9.31c0-.77,.62-.75,.82-.77v-.3h-2.57Z"/><path class="e" d="M29.56,42.13v-1.7h-.29c-.02,.2,0,.82-.77,.82h-3.06v-4.01h2.47c.77,0,.75,.62,.77,.82h.29v-2.39h-.29c-.02,.2-.06,.69-.77,.69h-2.47v-3.72h3.06c.77,0,.75,.62,.77,.82h.29v-1.7h-6.25v.3c.2,.02,.82,0,.82,.77v8.25c0,.77-.62,.75-.82,.76v.29h6.25Z"/><path class="e" d="M100.36,42.13v-1.7h-.3c-.02,.2,0,.82-.77,.82h-3.06v-4.01h2.47c.77,0,.75,.62,.77,.82h.29v-2.39h-.29c-.02,.2-.06,.69-.77,.69h-2.47v-3.72h3.06c.77,0,.75,.62,.77,.82h.3v-1.7h-6.25v.3c.2,.02,.82,0,.82,.77v8.25c0,.77-.62,.75-.82,.76v.29h6.25Z"/><path class="e" d="M45.5,42.25c.68,0,2.1-.16,2.87-.61l.35-2.26-.32-.05c-.56,1.7-1.65,2.03-2.74,2.03-1.64,0-3.87-1.4-3.87-5.04,0-2.61,1.01-5.32,3.44-5.32,2.68,0,2.97,2.06,3,2.37h.32v-2.65c-.98-.29-2.32-.47-3.08-.47-3.54,0-5.17,2.48-5.17,6.11,0,3.29,1.82,5.89,5.2,5.89Z"/><path class="e" d="M119.64,33.46h-.29c-.02-.2,0-.82-.77-.82h-1.8v8.43c0,.77,.62,.75,.82,.77v.29h-2.95v-.29c.2-.02,.82,0,.82-.76v-8.44h-1.82c-.77,0-.75,.62-.77,.82h-.3v-1.7h7.05v1.7Z"/><path class="e" d="M125.25,38.65l.89,2.43c.27,.77-.35,.75-.54,.77v.29h2.9v-.29c-.22,0-.76-.12-1.19-1.2l-3.22-8.87h-.86l-3.24,8.88c-.43,1.08-.86,1.19-1.08,1.19v.29h2.51v-.29c-.19-.02-.82,0-.54-.77l.88-2.43h3.49Zm-1.74-4.79l1.45,3.97h-2.9l1.45-3.97Z"/><path class="e" d="M11.31,31.76v.3c.2,.02,.82,0,.82,.76v6.93l-5.32-7.99h-1.75v.3c.2,.02,.82,0,.82,.76v8.25c0,.77-.62,.75-.82,.77v.29h2.57v-.29c-.2-.02-.82,0-.82-.76v-6.88l5.32,7.94h.93v-9.31c0-.77,.62-.75,.82-.77v-.3h-2.57Z"/><path class="e" d="M22,33.46h-.3c-.02-.2,0-.82-.77-.82h-1.8v8.43c0,.77,.62,.75,.82,.77v.29h-2.95v-.29c.2-.02,.82,0,.82-.76v-8.44h-1.82c-.77,0-.75,.62-.77,.82h-.29v-1.7h7.05v1.7Z"/><path class="e" d="M66,31.76v.3c.2,.02,.82,0,.82,.76v6.93l-5.32-7.99h-1.75v.3c.2,.02,.82,0,.82,.76v8.25c0,.77-.62,.75-.82,.77v.29h2.57v-.29c-.2-.02-.82,0-.82-.76v-6.88l5.32,7.94h.93v-9.31c0-.77,.62-.75,.82-.77v-.3h-2.57Z"/><path class="e" d="M76.7,33.46h-.29c-.02-.2,0-.82-.77-.82h-1.8v8.43c0,.77,.62,.75,.82,.77v.29h-2.95v-.29c.2-.02,.82,0,.82-.76v-8.44h-1.82c-.77,0-.75,.62-.77,.82h-.3v-1.7h7.05v1.7Z"/><path class="e" d="M39.14,41.38c-1.24-1.15-2.06-2.42-3.24-4.14,0,0,1.91-.71,1.91-2.82,0-1.03-.6-2.65-3.46-2.65h-2.86v.29c.2,.02,.82,0,.82,.77v8.25c0,.77-.62,.75-.82,.76v.29h2.95v-.29c-.2-.02-.82,0-.82-.77v-3.52h.99c.46,.65,1.69,2.38,2.07,2.93,1.05,1.49,2,1.81,3.03,1.81,.28,0,.53-.04,.61-.07v-.29c-.16,0-.59,0-1.19-.53Zm-5.37-4.58h-.15v-4.35h.16c1.96,0,2.6,.71,2.6,2.03,0,.96-.48,2.32-2.61,2.32Z"/></g></g><path class="d" d="M70.76,6.35s-2.08-.03-2.08,2.6,0,6.27,0,6.27c0,0,0,.1,0,.27,.02,.66,.26,2.32,2.07,2.45v.23h-6.53v-.23c1.81-.12,2.04-1.78,2.07-2.45,0-.17,0-.27,0-.27,0,0,.01-3.63,.01-6.27s-2.08-2.6-2.08-2.6v-.22h6.53v.22Zm-3.26-4.62c-.56,.43-1.45,1.01-2.45,1.88-.68,.59-1.46,1.33-2.1,2.18-.76,.99-1.41,2.18-1.77,3.58-.21,.85-.33,1.78-.33,2.8,0,1.5,.31,2.84,.77,3.96,.95,2.33,2.61,3.85,4.02,4.91,.31,.24,.6,.43,.87,.61,.19,.12,.4,.25,.55,.36,.16,.11,.4,.26,.43,.29,.26-.18,.41-.27,.7-.46,.28-.2,.58-.39,.92-.64,.37-.27,.7-.51,1.16-.91,.12-.12,.33-.29,.46-.42,1.71-1.6,3.38-4.01,3.38-7.75,0-2.7-.92-4.81-2.1-6.37-1.59-2.12-3.64-3.3-4.5-4.03Zm-7.43,10.35c0-6.97,5.74-9.88,7.42-11.27,1.72,1.39,7.45,4.3,7.45,11.27s-5.75,9.88-7.45,11.27c-1.68-1.39-7.43-4.3-7.43-11.27Zm-.75,0c0,7.35,6.39,10.62,8.18,12.1,1.8-1.48,8.19-4.75,8.19-12.1S69.31,1.47,67.5,0c-1.8,1.47-8.18,4.74-8.18,12.08Z"/></g></g></g></svg>