<?xml version="1.0" encoding="UTF-8"?><svg xmlns="http://www.w3.org/2000/svg" viewBox="0 0 98 67.48"><defs><style>.d{fill:#6a6d6f;}</style></defs><g id="a"/><g id="b"><g id="c"><g><path class="d" d="M19.49,34.57h2.04c-.23,.41-.27,.68-.27,1.42v6.28c0,.74,.05,1.01,.27,1.42h-2.04c.22-.39,.26-.64,.26-1.42v-2.8h-4v2.8c0,.73,.03,1.01,.26,1.42h-2.04c.23-.41,.26-.69,.26-1.42v-6.28c0-.73-.03-1.01-.26-1.42h2.04c-.23,.41-.26,.69-.26,1.42v2.47h4v-2.47c0-.78-.04-1.03-.26-1.42Zm6.08,8.49c.53,.55,1.32,.83,2.33,.83s1.72-.24,2.55-.87l.07-.06v.74h1.78c-.23-.42-.26-.69-.26-1.42v-6.28c0-.73,.03-1,.26-1.42h-2.04c.22,.4,.26,.65,.26,1.42v4.39c0,.91-.16,1.42-.57,1.86-.39,.42-.97,.65-1.6,.65-.68,0-1.27-.29-1.62-.78-.31-.45-.39-.86-.39-1.91v-4.21c0-.75,.05-1.02,.28-1.42h-2.04c.21,.4,.26,.68,.26,1.42v4.63c0,1.3,.17,1.87,.72,2.44Zm12.72-2.33l-.72,1.56c-.12,.26-.2,.63-.2,.89,0,.18,.03,.29,.11,.51h-2.09c.28-.36,.49-.72,.79-1.37l3.77-8.04,3.95,8.16c.32,.67,.46,.91,.72,1.25h-2.22c.08-.2,.1-.35,.1-.51,0-.24-.1-.6-.25-.9l-.72-1.52v-.03h-3.25Zm.44-.99h2.33l-1.17-2.55-1.13,2.49-.03,.07Zm11.81,3.03h-1.08v-6.79c0-.73,.03-1.01,.26-1.42h-2.04c.23,.41,.26,.69,.26,1.42v6.28c0,.76-.04,1.03-.25,1.42h4.74l.67-1.49c-.83,.43-1.47,.58-2.57,.58Zm6.63,.28c.54,.55,1.32,.83,2.33,.83s1.72-.24,2.55-.87l.08-.06v.74h1.77c-.23-.42-.26-.69-.26-1.42v-6.28c0-.73,.03-1,.26-1.42h-2.04c.22,.4,.26,.65,.26,1.42v4.39c0,.92-.16,1.42-.58,1.86-.39,.42-.97,.65-1.6,.65-.68,0-1.27-.29-1.62-.78-.3-.45-.39-.86-.39-1.91v-4.21c0-.75,.05-1.02,.28-1.42h-2.04c.22,.4,.26,.68,.26,1.42v4.63c0,1.3,.17,1.87,.72,2.44Zm13.97-2.9l1.58,2.41c.25,.4,.36,.69,.36,.98,0,.04,0,.07-.01,.11,0,.01,0,.02,0,.03h2.37c-.46-.38-.77-.75-1.26-1.47l-2.16-3.28,.02-.02,1.72-2.66c.5-.76,.84-1.18,1.41-1.68h-2.22c.03,.1,.04,.17,.04,.27,0,.31-.12,.62-.43,1.1l-1.24,1.93-.04-.06-1.17-1.78c-.33-.51-.49-.91-.49-1.25,0-.07,0-.12,.02-.21h-2.37c.52,.52,.82,.92,1.39,1.78l1.75,2.7v.02l-1.99,3c-.43,.65-.81,1.09-1.4,1.61h2.18c0-.06,0-.1,0-.13,0-.3,.1-.59,.36-1.02l1.56-2.44,.04,.06Zm10.25,2.62h-1.09v-3.35h.72c.81-.01,1.35,.14,1.86,.5l.72-1.43h-3.3v-3.01h1.05c.91,0,1.47,.13,1.93,.44l.66-1.36h-5.4c.23,.41,.26,.69,.26,1.42v6.28c0,.73-.03,1.01-.26,1.42h5.01l.64-1.39c-.93,.35-1.66,.47-2.8,.47ZM14.93,49.62s-.02,0-.02-.03v-.08c0-.64,0-.75,0-.89,0-.15,.04-.22,.16-.24,.05,0,.09-.02,.12-.02,.05,0,.07,0,.07-.04s-.03-.04-.09-.04c-.16,0-.42,.01-.53,.01-.11,0-.38-.01-.6-.01-.06,0-.09,0-.09,.04s.02,.04,.07,.04c.06,0,.13,0,.16,.02,.14,.03,.17,.09,.18,.24,0,.13,0,.25,0,.89v.73c0,.39,0,.72-.02,.89-.02,.12-.04,.22-.12,.23-.04,0-.09,.02-.15,.02-.05,0-.07,.01-.07,.03,0,.03,.03,.04,.08,.04,.17,0,.43-.01,.53-.01,.12,0,.38,.01,.65,.01,.05,0,.08-.01,.08-.04,0-.02-.02-.03-.07-.03-.06,0-.15-.01-.21-.02-.13-.02-.15-.11-.16-.23-.02-.18-.02-.51-.02-.89v-.37s.01-.02,.02-.02h1.6s.02,0,.02,.02v.37c0,.39,0,.72-.02,.89-.02,.12-.04,.22-.12,.23-.04,0-.09,.02-.15,.02-.05,0-.07,.01-.07,.03,0,.03,.03,.04,.09,.04,.16,0,.43-.01,.52-.01,.12,0,.38,.01,.65,.01,.05,0,.09-.01,.09-.04,0-.02-.02-.03-.07-.03-.06,0-.16-.01-.21-.02-.13-.02-.15-.11-.16-.23-.02-.18-.02-.51-.02-.89v-.73c0-.64,0-.75,0-.89,0-.15,.04-.22,.15-.24,.05,0,.09-.02,.12-.02,.05,0,.08,0,.08-.04s-.03-.04-.09-.04c-.16,0-.43,.01-.53,.01-.11,0-.38-.01-.6-.01-.06,0-.09,0-.09,.04s.02,.04,.07,.04c.06,0,.13,0,.16,.02,.14,.03,.17,.09,.18,.24,0,.13,0,.25,0,.89v.08s-.01,.03-.02,.03h-1.6Zm5.69,1.89c1.06,0,1.73-.76,1.73-1.71s-.65-1.56-1.69-1.56c-1.25,0-1.72,.92-1.72,1.64s.48,1.64,1.68,1.64Zm.18-.21c-.8,0-1.28-.69-1.28-1.56,0-1.04,.55-1.31,1.03-1.31,.69,0,1.22,.58,1.22,1.52,0,1.21-.68,1.35-.97,1.35Zm4.02-1.06c0,.39,0,.72-.02,.89-.01,.12-.04,.22-.12,.23-.04,0-.09,.02-.15,.02-.05,0-.07,.01-.07,.03,0,.03,.03,.04,.08,.04,.17,0,.43-.01,.53-.01,.12,0,.38,.01,.66,.01,.04,0,.08-.01,.08-.04,0-.02-.02-.03-.07-.03-.06,0-.15-.01-.21-.02-.13-.02-.15-.11-.16-.23-.02-.18-.02-.51-.02-.89v-1.71h.53c.37,.02,.49,.14,.49,.24v.05c0,.06,.02,.08,.05,.08,.02,0,.03-.02,.04-.07,0-.11,.01-.4,.01-.49,0-.06,0-.09-.04-.09-.02,0-.05,.01-.11,.02-.06,0-.15,.02-.29,.02h-1.65c-.14,0-.3-.01-.42-.02-.1,0-.15-.05-.18-.05-.02,0-.04,.02-.05,.08,0,.04-.09,.41-.09,.48,0,.04,0,.07,.04,.07,.03,0,.04-.02,.05-.05,0-.03,.03-.08,.07-.15,.06-.09,.16-.11,.41-.12l.62-.02v1.71Zm3.63,0c0,.39,0,.72-.02,.89-.02,.12-.04,.22-.12,.23-.04,0-.09,.02-.15,.02-.05,0-.07,.01-.07,.03,0,.03,.03,.04,.08,.04,.09,0,.19,0,.29,0,.1,0,.19,0,.24,0,.13,0,.25,0,.44,.01,.18,0,.41,.01,.72,.01,.16,0,.2,0,.23-.11,.02-.08,.05-.37,.05-.46,0-.04,0-.08-.03-.08-.03,0-.04,.02-.04,.06-.03,.17-.08,.26-.19,.31-.11,.05-.29,.05-.39,.05-.42,0-.49-.06-.5-.35,0-.12,0-.51,0-.65v-.33s0-.04,.03-.04c.1,0,.51,0,.59,.01,.16,.02,.21,.08,.23,.16,.01,.05,.01,.11,.02,.15,0,.02,0,.04,.04,.04,.04,0,.04-.05,.04-.08,0-.03,.01-.19,.02-.28,.02-.21,.03-.28,.03-.31,0-.03-.01-.03-.03-.03-.02,0-.04,.02-.07,.05-.04,.04-.1,.06-.2,.06-.1,0-.58,0-.67,0-.03,0-.03-.02-.03-.05v-1.06s0-.04,.03-.04c.08,0,.52,0,.59,.01,.21,.03,.25,.08,.28,.15,.02,.05,.03,.12,.03,.15,0,.04,0,.06,.04,.06,.03,0,.04-.03,.05-.05,0-.05,.01-.24,.02-.28,.01-.19,.03-.24,.03-.27,0-.02,0-.04-.03-.04s-.05,.01-.07,.02c-.04,0-.1,.02-.18,.02-.08,0-.91,0-1.05,0-.06,0-.15,0-.26-.01-.1,0-.22,0-.34,0-.06,0-.09,0-.09,.04s.02,.04,.07,.04c.06,0,.13,0,.16,.02,.14,.03,.17,.09,.18,.24,0,.13,0,.25,0,.89v.73Zm4.62-.73c0-.64,0-.75,.01-.89,0-.15,.04-.22,.15-.24,.05,0,.12-.02,.16-.02,.05,0,.08,0,.08-.04s-.03-.04-.09-.04c-.16,0-.47,.01-.57,.01-.11,0-.38-.01-.57-.01-.06,0-.09,0-.09,.04s.02,.04,.07,.04c.05,0,.1,0,.14,.02,.14,.03,.17,.09,.18,.24,0,.13,0,.25,0,.89v.73c0,.39,0,.72-.02,.89-.02,.12-.04,.22-.12,.23-.04,0-.09,.02-.15,.02-.05,0-.07,.01-.07,.03,0,.03,.03,.04,.08,.04,.08,0,.19,0,.29,0,.1,0,.19,0,.24,0,.17,0,.32,0,.51,.01,.19,0,.41,.01,.71,.01,.22,0,.24-.02,.26-.11,.03-.12,.06-.44,.06-.48,0-.05,0-.07-.03-.07-.03,0-.04,.03-.04,.06,0,.08-.06,.2-.11,.25-.1,.11-.27,.12-.49,.12-.33,0-.44-.03-.51-.09-.09-.07-.09-.36-.09-.9v-.73Zm3.86,2c.22,0,.45-.04,.67-.17,.3-.2,.39-.49,.39-.73,0-.4-.18-.68-.69-1.07l-.12-.08c-.35-.26-.45-.41-.45-.6,0-.25,.19-.43,.5-.43,.27,0,.39,.12,.45,.2,.09,.11,.11,.24,.11,.28,0,.05,.01,.07,.04,.07,.03,0,.05-.03,.05-.12,0-.33,.02-.45,.02-.5,0-.03-.02-.04-.06-.05-.11-.03-.28-.07-.55-.07-.58,0-.97,.33-.97,.79,0,.34,.16,.63,.62,.99l.19,.15c.35,.27,.41,.46,.41,.67,0,.22-.18,.48-.56,.48-.26,0-.5-.11-.6-.42-.02-.07-.04-.16-.04-.22,0-.03,0-.07-.04-.07-.03,0-.05,.04-.05,.11,0,.07-.02,.32-.02,.55,0,.09,.01,.11,.08,.14,.18,.08,.37,.11,.61,.11Zm6.61-1.15s.03,0,.04,.03l.33,.89s-.01,.09-.04,.1c-.04,0-.06,.01-.06,.04,0,.03,.05,.03,.13,.03,.33,0,.64,0,.79,0s.19,0,.19-.04-.02-.03-.05-.03c-.05,0-.11,0-.18-.02-.09-.02-.21-.08-.37-.46-.27-.64-.93-2.34-1.04-2.57-.04-.1-.07-.14-.1-.14-.04,0-.07,.05-.12,.17l-1.05,2.63c-.08,.21-.16,.35-.36,.37-.03,0-.09,.01-.13,.01-.03,0-.05,0-.05,.03,0,.03,.02,.04,.08,.04,.22,0,.45-.01,.49-.01,.13,0,.31,.01,.44,.01,.05,0,.07,0,.07-.04,0-.02-.01-.03-.06-.03h-.06c-.13,0-.17-.06-.17-.13,0-.05,.02-.15,.06-.26l.22-.6s.02-.03,.04-.03h.93Zm-.85-.21s-.02-.01-.02-.03l.38-1.03s.01-.03,.02-.03c.01,0,.02,.02,.02,.03l.38,1.03s0,.02-.02,.02h-.77Zm3.91-1.02h.01c.08,.08,.54,.6,.99,1.05,.44,.43,.97,.98,1.23,1.23,.05,.05,.1,.09,.14,.09,.04,0,.06-.04,.06-.13l.04-2.64c0-.23,.04-.32,.16-.35,.05-.02,.08-.02,.13-.02,.05,0,.08-.01,.08-.04,0-.03-.04-.04-.1-.04-.21,0-.36,.01-.41,.01-.09,0-.29-.01-.51-.01-.06,0-.11,0-.11,.04,0,.02,.02,.04,.07,.04,.06,0,.16,0,.22,.03,.1,.04,.14,.12,.14,.38l.04,1.88h-.02c-.07-.07-.64-.67-.92-.95-.61-.61-1.25-1.29-1.29-1.34-.07-.07-.11-.13-.16-.13-.04,0-.05,.06-.05,.14l-.04,2.47c0,.36-.02,.49-.13,.52-.06,.02-.13,.02-.19,.02-.04,0-.07,0-.07,.03,0,.04,.04,.04,.09,.04,.22,0,.41-.01,.45-.01,.08,0,.25,.01,.52,.01,.06,0,.1,0,.1-.04,0-.02-.03-.03-.07-.03-.07,0-.15,0-.22-.03-.08-.03-.14-.13-.15-.46l-.04-1.75Zm4.66,1.11c0,.39,0,.72-.02,.89-.02,.12-.04,.22-.12,.23-.04,0-.09,.02-.15,.02-.05,0-.07,.01-.07,.03,0,.03,.03,.04,.08,.04,.08,0,.19,0,.29,0,.1,0,.19,0,.24,0,.1,0,.25,.01,.41,.02,.16,.02,.33,.03,.48,.03,.77,0,1.21-.3,1.4-.49,.24-.23,.46-.64,.46-1.16s-.2-.84-.41-1.06c-.46-.48-1.15-.48-1.68-.48-.25,0-.51,.01-.64,.01-.12,0-.38-.01-.6-.01-.06,0-.09,0-.09,.04s.02,.04,.07,.04c.06,0,.13,0,.16,.02,.14,.03,.17,.09,.18,.24,0,.13,0,.25,0,.89v.73Zm.52-.8c0-.33,0-.69,0-.84,0-.05,.01-.06,.05-.08,.03-.02,.19-.03,.27-.03,.33,0,.8,.05,1.19,.42,.18,.17,.4,.51,.4,1.04,0,.43-.08,.81-.35,1.04-.25,.22-.54,.3-.96,.3-.33,0-.49-.09-.55-.17-.03-.05-.04-.22-.04-.32,0-.08,0-.4,0-.84v-.53Zm6.4,.8c0,.39,0,.72-.02,.89-.02,.12-.04,.22-.12,.23-.04,0-.09,.02-.15,.02-.05,0-.07,.01-.07,.03,0,.03,.03,.04,.08,.04,.17,0,.43-.01,.51-.01,.06,0,.37,.01,.61,.01,.05,0,.08-.01,.08-.04,0-.02-.02-.03-.05-.03-.05,0-.14-.01-.21-.02-.13-.02-.15-.11-.16-.23-.02-.17-.02-.5-.02-.89v-.06s.01-.03,.04-.03h.36s.05,.01,.08,.04c.06,.06,.25,.35,.41,.58,.23,.32,.39,.52,.57,.61,.11,.06,.21,.08,.45,.08h.4s.08,0,.08-.04c0-.02-.02-.03-.05-.03s-.07,0-.12-.01c-.06-.01-.23-.04-.47-.28-.25-.26-.53-.63-.91-1.1,.42-.34,.55-.63,.55-.94,0-.28-.17-.5-.28-.57-.23-.15-.51-.18-.77-.18-.13,0-.45,.01-.59,.01-.09,0-.35-.01-.57-.01-.06,0-.09,0-.09,.04s.02,.04,.07,.04c.06,0,.13,0,.16,.02,.14,.03,.17,.09,.18,.24,.01,.13,.01,.25,.01,.89v.73Zm.49-1.67s0-.05,.04-.06c.04-.01,.12-.02,.22-.02,.25,0,.64,.17,.64,.76,0,.34-.12,.54-.25,.63-.08,.06-.13,.07-.3,.07-.1,0-.23-.01-.32-.04-.03-.01-.04-.03-.04-.08v-1.27Zm3.92,1.67c0,.39,0,.72-.02,.89-.02,.12-.04,.22-.12,.23-.04,0-.09,.02-.15,.02-.05,0-.07,.01-.07,.03,0,.03,.03,.04,.08,.04,.08,0,.19,0,.29,0,.1,0,.19,0,.24,0,.13,0,.26,0,.43,.01,.18,0,.41,.01,.72,.01,.16,0,.2,0,.23-.11,.02-.08,.06-.37,.06-.46,0-.04,0-.08-.03-.08-.03,0-.04,.02-.05,.06-.03,.17-.08,.26-.19,.31-.11,.05-.28,.05-.39,.05-.42,0-.49-.06-.5-.35,0-.12,0-.51,0-.65v-.33s0-.04,.02-.04c.1,0,.52,0,.59,.01,.16,.02,.22,.08,.23,.16,.01,.05,.01,.11,.02,.15,0,.02,0,.04,.04,.04,.04,0,.04-.05,.04-.08,0-.03,.01-.19,.02-.28,.02-.21,.03-.28,.03-.31,0-.03-.01-.03-.03-.03-.02,0-.04,.02-.07,.05-.04,.04-.1,.06-.2,.06-.1,0-.58,0-.67,0-.03,0-.03-.02-.03-.05v-1.06s0-.04,.03-.04c.08,0,.52,0,.59,.01,.21,.03,.25,.08,.28,.15,.02,.05,.03,.12,.03,.15,0,.04,0,.06,.04,.06,.03,0,.04-.03,.04-.05,0-.05,.02-.24,.02-.28,.01-.19,.03-.24,.03-.27,0-.02,0-.04-.03-.04-.02,0-.04,.01-.07,.02-.03,0-.1,.02-.18,.02-.08,0-.91,0-1.04,0-.06,0-.16,0-.26-.01-.1,0-.23,0-.34,0-.06,0-.09,0-.09,.04s.02,.04,.07,.04c.06,0,.13,0,.16,.02,.14,.03,.17,.09,.18,.24,0,.13,0,.25,0,.89v.73Zm4.06,1.27c.22,0,.45-.04,.67-.17,.3-.2,.39-.49,.39-.73,0-.4-.18-.68-.69-1.07l-.12-.08c-.35-.26-.44-.41-.44-.6,0-.25,.19-.43,.5-.43,.27,0,.39,.12,.45,.2,.09,.11,.11,.24,.11,.28,0,.05,.01,.07,.04,.07,.03,0,.04-.03,.04-.12,0-.33,.02-.45,.02-.5,0-.03-.02-.04-.06-.05-.11-.03-.28-.07-.55-.07-.58,0-.97,.33-.97,.79,0,.34,.16,.63,.62,.99l.19,.15c.35,.27,.41,.46,.41,.67,0,.22-.18,.48-.56,.48-.26,0-.5-.11-.6-.42-.02-.07-.04-.16-.04-.22,0-.03,0-.07-.04-.07s-.05,.04-.05,.11c0,.07-.02,.32-.02,.55,0,.09,.01,.11,.08,.14,.18,.08,.37,.11,.61,.11Zm4.31,0c1.06,0,1.73-.76,1.73-1.71s-.65-1.56-1.69-1.56c-1.25,0-1.72,.92-1.72,1.64s.48,1.64,1.68,1.64Zm.17-.21c-.8,0-1.28-.69-1.28-1.56,0-1.04,.55-1.31,1.03-1.31,.68,0,1.22,.58,1.22,1.52,0,1.21-.68,1.35-.97,1.35Zm3.1-1.06c0,.39,0,.72-.02,.89-.02,.12-.04,.22-.12,.23-.04,0-.09,.02-.15,.02-.05,0-.06,.01-.06,.03,0,.03,.03,.04,.08,.04,.17,0,.43-.01,.51-.01,.06,0,.37,.01,.61,.01,.05,0,.08-.01,.08-.04,0-.02-.02-.03-.05-.03-.05,0-.14-.01-.2-.02-.13-.02-.15-.11-.17-.23-.02-.17-.02-.5-.02-.89v-.06s.01-.03,.03-.03h.37s.05,.01,.07,.04c.05,.06,.25,.35,.41,.58,.23,.32,.39,.52,.57,.61,.11,.06,.21,.08,.45,.08h.4s.08,0,.08-.04c0-.02-.01-.03-.05-.03-.04,0-.07,0-.12-.01-.06-.01-.23-.04-.47-.28-.24-.26-.53-.63-.91-1.1,.42-.34,.55-.63,.55-.94,0-.28-.17-.5-.28-.57-.23-.15-.51-.18-.77-.18-.13,0-.45,.01-.59,.01-.09,0-.35-.01-.57-.01-.06,0-.09,0-.09,.04s.02,.04,.07,.04c.06,0,.13,0,.16,.02,.14,.03,.17,.09,.18,.24,0,.13,0,.25,0,.89v.73Zm.49-1.67s0-.05,.04-.06c.04-.01,.12-.02,.22-.02,.25,0,.64,.17,.64,.76,0,.34-.12,.54-.24,.63-.08,.06-.13,.07-.3,.07-.1,0-.23-.01-.32-.04-.03-.01-.04-.03-.04-.08v-1.27Zm4.4,1.67c0,.39,0,.72-.02,.89-.01,.12-.04,.22-.12,.23-.04,0-.09,.02-.15,.02-.05,0-.07,.01-.07,.03,0,.03,.03,.04,.08,.04,.17,0,.43-.01,.53-.01,.11,0,.38,.01,.65,.01,.05,0,.08-.01,.08-.04,0-.02-.02-.03-.07-.03-.06,0-.15-.01-.21-.02-.12-.02-.15-.11-.16-.23-.02-.18-.02-.51-.02-.89v-1.71h.52c.37,.02,.48,.14,.49,.24v.05c0,.06,.02,.08,.05,.08,.03,0,.03-.02,.04-.07,0-.11,.01-.4,.01-.49,0-.06,0-.09-.04-.09-.02,0-.05,.01-.11,.02-.06,0-.15,.02-.29,.02h-1.66c-.14,0-.3-.01-.42-.02-.11,0-.15-.05-.18-.05-.03,0-.04,.02-.05,.08-.01,.04-.09,.41-.09,.48,0,.04,0,.07,.04,.07,.03,0,.04-.02,.05-.05,0-.03,.03-.08,.07-.15,.06-.09,.16-.11,.41-.12l.62-.02v1.71Zm4.07,1.27c.22,0,.46-.04,.67-.17,.3-.2,.39-.49,.39-.73,0-.4-.18-.68-.68-1.07l-.12-.08c-.35-.26-.44-.41-.44-.6,0-.25,.19-.43,.5-.43,.27,0,.39,.12,.46,.2,.09,.11,.11,.24,.11,.28,0,.05,.01,.07,.04,.07,.04,0,.05-.03,.05-.12,0-.33,.02-.45,.02-.5,0-.03-.02-.04-.06-.05-.11-.03-.28-.07-.56-.07-.58,0-.96,.33-.96,.79,0,.34,.16,.63,.62,.99l.19,.15c.35,.27,.41,.46,.41,.67,0,.22-.18,.48-.56,.48-.26,0-.5-.11-.6-.42-.02-.07-.04-.16-.04-.22,0-.03,0-.07-.04-.07s-.05,.04-.05,.11c0,.07-.02,.32-.02,.55,0,.09,.01,.11,.08,.14,.18,.08,.37,.11,.61,.11Zm-15.35,6.09h.23l-.03-.2c-.03-.23-.16-.43-.29-.62l-.07-.11-.09-.08c-.14-.11-.32-.24-.58-.24-.03,0-.07,0-.12,0-.12,.03-.21,.11-.24,.22-.03,.11,0,.22,.08,.28,.39,.5,.75,.74,1.1,.74Zm-2.16,3.81c-.39,.73-.8,1.49-1.32,2.14l-1.52,2.84h-.1c-.38-.02-.75-.39-.75-.77,0-.41,.44-.61,.66-.9,.26-.33,.47-.7,.67-1.07,.25-.45,.51-.92,.89-1.34l1.67-2.64c.13-.26,.27-.53,.42-.77-.37,.11-.75,.21-1.17,.21-.23,0-.44-.03-.66-.08-.27-.13-.37-.34-.32-.63v-.07l.07-.04c.25-.16,.5-.18,.7-.18,.09,0,.18,0,.28,0,.18,.01,.36,.02,.54,0,.42-.13,.91-.16,1.38-.18,.76-.04,1.49-.08,2.02-.54l.04-.04h.05c.51-.03,.95,.18,1.22,.56l.03,.04c.29,.41-.84,.47-1,.49-.62,.06-1.23,.08-1.84,.16-.06,.04-.12,.08-.17,.12-.55,.48-.94,1.09-1.3,1.73,.15-.07,.3-.12,.45-.15,.01,0-.16-.97,.44-.26,.23,.27,.61,.13,.94,.07,.41-.08,.41-.39,.4-.73,0-.11-.03-.34,.04-.43,.12-.14,.23-.03,.38-.09,.14,.22,.31,.41,.42,.65,.52-.33,.56-.19,.93,.26,.25,.29,.35,.56-.16,.54-.33-.01-.64-.09-.84,.24-.07,.11-.08,.85-.1,.86,.33-.15,.62-.12,.95,.04,.18,.09,.53,.22,.47,.47-.04,.16-.16,.21-.23,.22-.37,.04-.71-.08-1.08,0-.3,.06-.57,.17-.85,.28-.25,.1-.47,.16-.75,.21-.32,.05-.68,.25-1,.26-.39,.01-.73-.39-.88-.72,.29-.04,.97,.11,1.2-.07,.3-.22-.11-.83-.2-1.12-.3,.05-.62,.05-.88,.1-.06,.12-.12,.23-.19,.35Zm1.69-.63c.01,.22,.04,.83,.2,.98,.18,.17,.47,.08,.64-.08,.04-.04,.08-.08,.1-.13,.04-.08,.08-.88,.11-.88-.33,.05-.72,.12-1.05,.1Zm2.8,4.94c-.1-.05-.21-.11-.32-.17-.09-.05-1.29-.79-1.27-.81,.38-.36,.81-.88,1.1-1.31v-.21c-.16-.13-.29-.29-.46-.39-.34-.2-.99,.17-1.31,.28-.23,.07-.54,.12-.74,.25,.05,.02,.12,.11,.15,.12,.24,.08,.52-.11,.76-.06,.55,.1-.05,.7-.2,.88-.22-.01-1.17-.76-1.54-.69,.12,.6,.47,.93,1.02,1.37-.47,.45-2.03,1.27-2.25,1.32,0,0,.2,.14,.22,.15,.17,.08,.39,.06,.57,.04,.7-.06,1.11-.45,1.66-.83,.16-.11,.37-.17,.51-.32,.49,.41,1.07,.7,1.62,1.01,.28,.16,.54,.35,.82,.49,.28,.14,.55,.29,.85,.15,.33-.15,.71-.42,.91-.75-.77-.13-1.42-.22-2.1-.53Zm-17.31-2.87c.35-.95,1.3-2.31,1.53-3.34-.12-.07-.29-.21-.41-.25-.13,.03-.4-.04-.49,.14-.93,3.07-2.8,4.94-3.01,5.34-.27,.3-.17,.95-.19,1.42,.12,.24,.28,.01,.46,.09,.32-.18,.36-.52,.47-.81l1.63-2.6Zm4.2,.83h0c.09-.22,.18-.42,.27-.59,.15-.27,.31-.79,.21-1.1-.1-.3-.59-.59-.87-.73-.02,0-.05-.02-.08-.04-.54-.28-.83-.46-.88-.55-.08-.14,.14-.39,.38-.66,.15-.17,.32-.36,.44-.56,.01-.02,.03-.05,.06-.08,.16-.21,.54-.7-.06-1.27-.09-.08-.17-.18-.25-.28-.16-.19-.32-.39-.55-.5-.11-.05-.22-.07-.34-.07-.22,0-.41,.09-.62,.18-.06,.02-.11,.05-.17,.07-.56,.22-1.29,.36-1.93,.47-.5,.09-.93,.17-1.15,.27-.15,.06-.15,.17-.14,.22,.05,.27,.68,.59,1.13,.59,.01,0,.03,0,.05,0,.42-.06,.64-.2,.86-.35,.16-.11,.31-.21,.54-.28,.57-.17,.98-.25,1.27-.25,.22,0,.36,.05,.42,.14,.18,.29,0,.63-.18,.92-.05,.09-.1,.17-.13,.25-.06,.12-.14,.27-.23,.42-.23,.41-.47,.83-.32,1.06,.15,.23,.57,.5,.83,.65,.07,.04,.14,.09,.15,.1,.1,.09,.31,.3,.37,.41,.12,.19,.12,.48,.01,.87-.14-.11-.29-.21-.43-.25-1.07-.1-1.29-.28-2.17,.57-.04,.03-.11,.12-.21,.23h0c.34-.18,.75-.63,1.14-.53,.32,.08,.78,.21,1.1,.64,.1,.16,.04,.88-.77,1.17-.51,.16-1.3,0-1.73-.29-.11-.03-.1-.38,0-.66-.19,.29-.35,.62-.27,.78,.43,.48,.33,.57,1.07,.75,.9,.14,1.69-.21,2.31-.6,.68,.21,.92,1.19,1.52,1.27,.36-.01,.72-.57,.75-.69-.02-.47-.94-1.3-1.43-1.69Zm-3.95,.19c.08-.12,.17-.24,.24-.33-.11,.06-.19,.19-.24,.33Zm-42.63-.53s-.03,.1-.07,.12c-.04,.03-.09,.04-.14,.03-.44-.11-.88-.22-1.31-.24-.32-.02-.65,0-.97,.04h-.08c-.26,.03-1.3,.04-1.99,.04-.26,0-.47,0-.54,0-.08,0-.14,.01-.17,.02,0,.1,0,.21,0,.32-.01,.2-.03,.42,.04,.54,.25-.07,.56-.09,.85-.1,.31-.02,.62-.04,.84-.11,.03,0,.05-.01,.08,0,.44,.08,.65,.39,.85,.66l.08,.12c.04,.06,.04,.14,0,.2-.06,.09-.17,.14-.29,.14-.1,0-.21-.03-.28-.06-.1-.02-.19-.04-.29-.07-.16-.04-.32-.07-.47-.1-.15-.02-.39-.01-.61,0-.16,0-.31,0-.42,0h-.07c-.27,0-.34,.07-.37,.16-.04,.1-.01,.22,.02,.37,.02,.09,.04,.19,.05,.28,0,.08,.01,.17,.03,.25,.03,.26,.07,.56-.06,.83-.02,.03-.04,.08-.05,.13-.07,.2-.17,.47-.4,.56-.02,0-.04,.01-.07,.01-.03,0-.06,0-.08-.02-.16-.09-.2-.26-.23-.38,0-.02-.01-.05-.02-.07-.06-.2-.08-1.06-.04-1.37l.02-.12c.04-.21,.05-.36-.03-.47-.15,.03-.35,.05-.59,.08-.32,.04-.72,.08-.85,.14-.02,0-.04,.01-.07,.01h0c-.29,0-.53-.09-.75-.19-.07-.03-.11-.1-.1-.18,.02-.15,.23-.28,.38-.29,.28-.07,1.33-.18,1.62-.18,.32,0,.35-.15,.36-.2,.02-.09,0-.65-.02-.75h-.05s-.08,0-.11,.02c-.21,.04-.43,.06-.66,.08-.24,.02-.48,.04-.65,.07-.32,.06-1.4,.29-1.62,.37l-.1,.03c-.15,.05-.31,.1-.49,.1h-.06c-.06,0-.11-.04-.13-.09-.02-.04-.08-.09-.13-.14-.13-.12-.35-.33-.2-.59,.03-.05,.08-.08,.14-.09,.82-.07,1.63-.18,2.39-.32,0-.02-.03-.11-.04-.15l-.02-.06-.03-.03c-.34,.07-.65-.12-.92-.31-.13-.09-.26-.17-.38-.22-.07-.02-.11-.09-.11-.16,0-.28,.38-.3,.62-.31,.04,0,.07,0,.09,0,.09-.01,.17,0,.25,.01,.03,0,.06,.01,.09,.02,.05,0,.1,0,.12,0,0,0-.01-.03-.02-.05-.05-.11-.08-.21-.11-.3-.07-.22-.11-.34-.34-.45-.06-.03-.09-.09-.09-.15,0-.1,0-.19,.07-.27,.05-.05,.12-.08,.22-.08h0c.27,0,.54,.35,1.03,1.1,.04,.07,.08,.13,.12,.18,.05,0,.1-.02,.14-.04,.12-.05,.29-.09,.44-.02,.05,.02,.09,.07,.09,.13,0,.06-.02,.11-.06,.15l-.42,.35s0,.1,0,.14c0,.25,0,.35,.15,.41,.14,.05,.51,0,.7-.05,.09-.4,.03-.85-.03-1.27-.01-.12-.03-.23-.04-.34-.04-.14-.15-.29-.31-.43-.54,.17-1.09,.03-1.32-.35-.02-.03-.02-.06-.02-.09v-.1s.02-.09,.05-.12c.03-.03,.07-.05,.12-.05h0c.4,0,.9-.03,1.25-.1-.05-.5-.17-.72-.25-.82-.08,.02-.17,.04-.26,.07-.23,.06-.47,.13-.66,.14-.41-.03-1.18-.48-1.27-.59-.03-.03-.04-.07-.04-.11v-.07c0-.06,.04-.13,.1-.15,.11-.05,.3-.06,.65-.06,.14,0,.27,0,.39,0,.07,0,.13,0,.18,0,.36-.02,.7-.13,.74-.21,.08-.15,.07-.18,.01-.37l-.02-.06c-.05-.17-.08-.34-.1-.5-.01-.07-.02-.14-.03-.21,0-.04-.02-.08-.03-.12-.03-.09-.06-.19-.05-.3,0-.05,.03-.09,.07-.12,.04-.03,.09-.04,.13-.03,.16,.03,.31,.17,.37,.22l.05,.04c.08,.08,.18,.16,.22,.29,.01,.03,.02,.09,.04,.17,.03,.16,.1,.47,.19,.63h.19s.07,0,.08,0c.07,.01,.18,.03,.28,.07,.13,.04,.28,.14,.31,.3,0,.05,0,.16-.12,.27-.03,.03-.07,.05-.25,.13-.1,.05-.29,.14-.4,.21,.08,.14,.14,.31,.21,.48,.08,.2,.15,.4,.25,.55,.23-.03,.49-.1,.61-.26,.11-.25,.2-.61,.28-.96,.05-.2,.1-.4,.15-.58l-.07-.06s-.06-.09-.06-.15c0-.06,.04-.1,.09-.13,.21-.11,.21-.92,.14-1.08-.06-.09-.11-.18-.13-.29,0,0-.01-.23,.08-.34,.05-.05,.14-.08,.2-.06,.38,.15,.68,.44,.79,.76,.06,.17,.05,.35,.04,.5,0,.08,0,.17,0,.25,0,.06,.02,.11,.03,.15,.01,0,.03,0,.04,0,.12-.01,.24-.03,.36-.04,.11,0,.22-.02,.32-.03h0c.11,0,.2,.06,.49,.28l.05,.04c.14,.11,.29,.23,.37,.4,.06,.12,.04,.24,.02,.33-.01,.07-.08,.15-.15,.15-.33,.04-.62-.1-.89-.23-.14-.07-.27-.13-.4-.16-.04-.01-.08-.02-.13-.03-.08-.02-.16-.03-.23-.06-.14-.05-.2,.09-.28,.29-.02,.04-.03,.07-.05,.11-.03,.06-.05,.12-.08,.19-.1,.25-.22,.54-.42,.75,.02,0,.04,.01,.06,.02h.02c.15-.03,.35-.07,.54-.07,.26,0,.45,.07,.6,.2,.02,.01,.03,.04,.04,.06,0,0,.02,.03,.04,.04,.06,.06,.2,.19,.11,.39-.03,.06-.08,.09-.14,.1-.08,0-.17,.03-.25,.04-.06,.01-.11,.02-.17,.04-.03,0-.06,0-.09,.01h.02s.08,.05,.12,.07c.05,.02,.1,.05,.15,.07,.22,.12,.22,.26,.14,.43-.05,.1-.09,.16-.12,.19v.02s.09,.02,.11,.02c0,0,.03,0,.06-.02,.1-.03,.26-.05,.4,.05,.12,.08,.34,.34,.3,.56-.02,.12-.1,.21-.22,.25-.13,.04-.32,0-.43-.04-.04-.01-.11-.02-.22-.02-.05,0-.1,0-.13,0-.28,.04-.41,.39-.51,.67h0c.09,.05,.34,.03,.53-.01,.05,0,.09-.02,.13-.02,.34-.06,.68-.1,1.02-.15l.29-.04c.16-.02,.69-.07,.8-.08,.04,0,.08,0,.12-.01,.13-.01,.24-.02,.35,0,.03,.01,.09,.02,.14,.06,.14,.08,.24,.21,.32,.32l.04,.05c.12,.15,.27,.37,.25,.65Zm-5.18-.7c.3-.04,.47-.34,.62-.61,.04-.07,.07-.13,.11-.19-.03-.01-.08-.03-.16-.04-.1-.03-.22-.05-.33-.12-.06-.04-.17-.12-.15-.26,.02-.13,.16-.16,.21-.17,.05-.01,.17-.03,.3-.05,.11-.02,.31-.05,.35-.06,.02-.02,.04-.04,.05-.08,.02-.08-.02-.19-.06-.25l-.03-.04c-.06-.09-.26-.35-.37-.36-.04,0-.17,.03-.26,.05-.1,.02-.2,.04-.25,.05-.05,0-.12,0-.19,0-.11,0-.24,0-.3,0,.02,.01,.03,.02,.05,.03,.05,.04,.09,.07,.13,.11,.09,.09,.24,.28,.26,.49,0,.13-.03,.24-.07,.33-.02,.05-.04,.1-.05,.14-.03,.22-.05,.82,.1,.99,.02,.02,.04,.03,.06,.03Zm10.07-3.34c-.04,.23-.03,.94,.35,.93,.14,0,.32-.11,.45-.16,.3-.14,.64-.18,.97-.24,.21-.03,.41-.09,.61-.12,.23-.03,.46,0,.69-.05,.24-.05,.35-.23,.46-.43,.15-.29,.39-.69,.62-.92,.11-.1,.26-.2,.32-.34,.07-.15,.01-.32-.04-.47-.07-.2-.11-.42-.25-.59-.33-.39-.86-.61-1.34-.54-.21,.03-.4,.1-.61,.13-.38,.05-.77,.02-1.15,.1-.2,.04-.67,.14-.67,.42,0,.15,.16,.21,.27,.28,.22,.14,.45,.27,.7,.36,.16,.06,.48,.25,.63,.17,.38-.2,.74-.47,1.21-.45,.23,.39-.28,.67-.49,.95-.24,.46-.74,.62-1.17,.69-.1-.05-.26-.06-.35,.02-.41-.41-.91-.93-1.47-1.08-.03,0,.06,.24,.07,.26,.05,.09,.13,.17,.19,.25,.17,.25,.06,.54,.02,.81Zm-.04,2.12c-.13,0-.25,.04-.37,.06-.07,.01-.79,.22-.77,.24-.11-.16-.28-.42-.15-.64,.11-.12,.37,.01,.53-.02,.18-.03,.34-.14,.52-.19,.55-.17,1.17-.18,1.74-.28,.47-.07,.93-.19,1.4-.28,.39-.21,.92-.11,1.27-.43,.44,.04,.66,.53,.9,.86,.06,.41-.29,.52-.49,.74-.28,.46-.86,.85-.9,1.43,.14,.29,.58,.34,.64,.67-.96,.31-2.09,.15-3.01,.54-.23-.04-.26-.26-.46-.38l-.75-.13c-.04-.08-.15-.13-.11-.22,.05-.1,.35-.13,.45-.14,.16-.02,.35,0,.49-.08,.26-.15,.26-.56,.35-.85,.13-.43-.41-.77-.71-.81-.18-.02-.37-.09-.55-.1,0,0-.01,0-.02,0Zm1.84,.14c.7,.32,.02,.96,.18,1.36,.59,.03,.71-.88,1.06-1.22,.07-.19,.08-.26,.08-.49-.14-.12-.34-.36-.5-.19-.45-.02-.85,.08-1.23,.21-.02,.21,.27,.23,.42,.33Zm5.12,4.56c-.16-.16-.38-.21-.57-.28-.12-.05-.35,.02-.48,.03-.17,0-.34,.02-.52,.03-.68,.02-1.36-.03-2.04,.05-.66,.07-1.32,.19-1.98,.21-.23,0-1.6,.12-1.72,.03-.25-.18-.29-.57-.26-.89,.04-.45,.42-.96,.12-1.36-.25-.33-.6,.05-.9,.05-.08,.17-.19,.33-.15,.55,.11,.62,.17,1.46,.68,1.88,.06,.04,.07,.23,.14,.3,.24,.25,.65,.21,.95,.22,.29,0,.59,.02,.89-.01,.73-.08,1.48-.11,2.22-.11,.28,0,.55,.02,.82,0,.24-.02,.47-.13,.71-.14,.56-.01,1.17-.12,1.76-.19,.13-.1,.38-.13,.34-.37Zm12.2-9.15c-.19-.35-.61-.32-.95-.41-.79,.22-1.9,.49-2.73,.57-.6,.06-1.55-.15-2.05,.15,.02,.22,.07,.43,.26,.61,.77,.6,1.64-.1,2.33-.2,.87-.1,2.11-.16,2.95-.33,.1-.08,.26-.19,.2-.39Zm-7.74,.14c-.09,0-.16,.04-.19,.17-.05,.21,.05,.41,.05,.62,0,.19-.04,.39-.09,.57-.03,.08-.1,.47-.18,.51,.11-.04,.22-.1,.35-.11,.13-.01,.19,.07,.31,.08,.07,0,.08-.03,.13-.04,.19-.04,.4,.07,.59,.1,.12,.02,.42,.03,.46-.11,.09-.31,.01-.66-.12-.94-.03-.06-.2-.17-.25-.21-.15-.13-.31-.24-.47-.35-.14-.09-.39-.27-.56-.28Zm6.97,2.79c-.02,.3-.23,.5-.21,.82,.02,.35,.09,.73,.02,1.06,.1,1.13,.04,3.22-.02,4.35-.09,.2-.09,.47-.37,.56-.12,.03-.31,.01-.43-.05-.25-.25-.39-.51-.32-.85-.18-.13-.86-.02-1.06-.19-.4-.51-1.31-.9-.95-1.65,.02-.24,.31-1.31-.09-1.51-.13-.55,.53-.76,.51-1.25,0-.1,.03-.14-.09-.16-.07-.01-.15,.03-.21,.04-.14,.04-.53,.09-.68,.02-.14-.03-.25-.01-.34,.09-.12,.97-.11,2.85-.08,3.81,.13,.45,.27,.9,.38,1.35-.02,.15-.06,.33-.23,.38-.23,.06-.3-.21-.39-.32-.12-.4-.45-.84-.22-1.26,.04-.07-.01-.29-.02-.38,0-.13,0-.26,0-.39,0-.68,.04-2.22,.03-2.9,0-.33-.15-.67-.13-1,0-.06,.04-.11,.04-.17,0-.02-.05-.42,0-.38,.19,.1,.42,.3,.63,.16,.09-.06,.23-.07,.27-.19-.23-.1-.12-.36-.29-.53,.11-.28-.01-.68-.05-1,.07-.03,.1-.11,.14-.17,.2,.04,.43,.23,.62,.28l.96-.69c.37,.04,1.3-.04,1.46,.39,.03,.29-.23,.51-.05,.8,.35-.18,.61,.19,.89,.35,.14,.17,.27,.34,.25,.55Zm-2.96-.56c-.02,.08,.01,.32,.1,.34l.59-.2c.08-.39,.12-.8,.25-1.17-.04-.18-.62-.09-.74-.06-.18,.16-.37,.37-.39,.59,.02,.17,.22,.34,.19,.48Zm1.8,1.22c-.22-.01-.71,.16-.9,.2-.21,.4-.52,.91-.74,1.31,.23,.04,.47,.1,.63,.28-.04,.26,.22,1.11-.11,1.25-.16,.08-.32,.05-.5-.02-.13,.62,1.08,.93,1.44,1.27,.1-1.13,.28-3.16,.19-4.3Zm-5.87,1.75c.14,.02,.28,.03,.37-.1,.11-.3,.11-.73-.13-1.01-.53-.32-.88-1.01-1.55-1.04-.42,.69,.46,1.23,.58,1.89,.29-.03,.44,.25,.72,.25Zm.86,2.87c-.41-.31-.78-.68-1.21-.91-.24,0-.59-.25-.7,0,.06,.45,.3,.86,.61,1.24,.28,.3,.58,.81,1.06,.68,.18-.04,.22-.21,.27-.35-.17-.26,.23-.44-.03-.65Zm17.67-6.99l.1-.04v-.25l-.03-.05c-.27-.38-.71-.58-1.21-.56h-.05l-.04,.04c-.08,.07-.16,.12-.24,.17l-.02-.16c-.03-.25-.17-.45-.3-.65l-.07-.11-.11-.1c-.14-.11-.34-.26-.62-.26-.04,0-.08,0-.14,0-.15,.04-.26,.15-.3,.29-.03,.14,0,.28,.09,.35,.4,.52,.78,.77,1.16,.77h.04c-.44,.17-.95,.2-1.47,.23-.47,.02-.95,.05-1.36,.18-.18,.03-.36,.02-.53,0-.09,0-.19,0-.28,0-.19,0-.45,.02-.68,.18l-.06,.04v.07c-.06,.28,.04,.49,.3,.61,.21,.06,.43,.08,.65,.08,.49,0,.93-.13,1.36-.26,.42-.13,.82-.25,1.26-.25,.07,0,.14,0,.21,0v.06l-.88,1.47-1.9,2.68c-.41,.42-.71,.9-1,1.36-.41,.66-.8,1.28-1.5,1.73l-.11,.07,.05,.13c.02,.07,.05,.13,.07,.2,.09,.29,.21,.68,.67,.74h.1l1.75-2.89c.58-.65,1.04-1.43,1.5-2.17,.88-1.46,1.8-2.97,3.6-3.72Zm-.28,7.52c.52-.4,1.09-1.29,1.05-1.9-.04-.67-.56-.72-.98-.76-.24-.03-.48-.06-.64-.17,.15-.19,.38-.35,.63-.52,.48-.33,1.02-.71,.97-1.34v-.05c-.11-.25-.38-.41-.67-.36l-.05,.02c-.09,.05-.21,.06-.33,.06h-.21c-.18,0-.38,.01-.53,.12-.27,.17-.68,.16-1.09-.02h-.11c-.21,0-.47,.02-.57,.2-.04,.07-.06,.18,.03,.33,.21,.38,.47,.56,.77,.56s.59-.18,.87-.37c.23-.14,.46-.29,.68-.33,0,.02-.01,.05-.02,.08-.45,.57-1.25,1.13-1.96,1.62-.15,.1-.29,.2-.43,.3l-.04,.05c-.05,.08-.17,.14-.29,.21-.21,.12-.48,.26-.51,.56v.13l.1,.04c.1,.04,.14,.11,.21,.24,.09,.17,.21,.4,.56,.4h.05l.04-.02c.22-.14,.44-.31,.68-.5,.41-.32,.83-.65,1.29-.85,.08-.05,.24,0,.33,.07,.15,.42-.3,1.21-.68,1.59-.1,.01-.38,0-.67-.02-.2-.01-.41-.03-.58-.03-.2,0-.34,.02-.44,.06l-.12,.05,.02,.13c.03,.18,.26,.36,1.02,.8,.09,.05,.16,.09,.2,.12l.03,.02h.19c.21,.03,.42,.05,.64,.05,.32,0,.56-.03,.77-.11l.29-.13-.28-.17c-.12-.08-.18-.12-.22-.16Zm52.98-6.53c.08,.09,.13,.24,.09,.28-.05,.08-.21,.13-.42,.13-.03,0-.05,0-.08,0-.06,0-.12,0-.17,0-.08,0-.15,0-.23,.02-.07,0-.14,0-.24,.01-.08,0-.15,.02-.23,.04-.02,0-.15,.03-.2,.05h0s0,.08,.02,.17c.02,.11,.05,.25,.05,.33-.01,.09-.02,.19-.03,.3h0c0,.35,.02,1.16,.07,1.53,0,.03,.2,3.66-.38,4.65-.04,.02-.22,.08-.33,.11-.08,.02-.1,.03-.11,.03,0,0-.11,.07-.15,.09-.05,0-.09,0-.14,0-.23-.02-.33-.17-.45-.34-.03-.03-.05-.07-.07-.1-.23-.31-.57-.6-.82-.82-.13-.11-.23-.2-.27-.25-.11-.12-.38-.53-.48-.74-.09-.18-.12-.33-.09-.38,0-.01,.02-.02,.04-.02,0,0,.01,0,.02,0,.11,.02,.28,.16,.43,.28,.07,.06,.13,.11,.18,.15,.03,.02,.08,.07,.15,.12,.24,.21,.64,.56,.96,.56,.15,0,.26-.07,.34-.21h0s.11-.49,.16-.66c.18-.49,.15-1.18,.13-1.73v-.07c0-.06-.01-.22-.02-.39-.01-.34-.02-.42-.02-.43h0c0-.07-.01-1.41,0-1.53,0-.09-.06-.36-.07-.4-.03-.08-.06-.1-.12-.14-.01,0-.03-.02-.05-.03h-.02s-.42,.09-.76,.16c-.29,.05-.59,.11-.78,.15,0,0-.02,0-.02,.01-.16-.02-.28-.05-.38-.09-.07-.03-.13-.11-.19-.18-.04-.05-.08-.1-.12-.13l-.03-.03s-.03-.05-.04-.08c-.06-.11-.13-.23-.06-.35,.01-.03,.11-.09,.25-.09,0,0,.02,0,.03,0s1.08-.02,1.3-.04c.29-.03,.59-.15,.75-.26,.03,0,.06-.03,.08-.07,.15-.26,.14-1.17-.07-1.83h0c-.01-.06-.12-.31-.12-.31,0-.01,0-.02,0-.03,.02-.04,.11-.06,.15-.06h.05c.44,0,.74,.53,.81,.71,.04,.12,.02,.21,0,.29,0,.04-.01,.08-.01,.11,.03,.34,.23,.75,.42,.86,.19,.12,.44,.22,.71,.33,.07,.03,.15,.06,.22,.09,.09,.06,.16,.11,.22,.16,.04,.03,.07,.06,.11,.08Zm-1.34-.32h0c-.03-.05-.19-.13-.27-.13-.02,0-.03,0-.04,.01h0s.03,.13,.1,.16c.03,.01,.05,.02,.08,.02,.06,0,.12-.02,.13-.05h0Zm-2.69,3.31h0c.02,.06,.05,.12,.07,.18,.05,.11,.1,.23,.13,.35,.01,.08,.02,.15,.02,.23h0c.01,.06,.03,.13,.05,.19,0,0,.02,0,.03,.01,.12,0,.22-.05,.31-.13h0v-.03h.02s.02-.02,.04-.04c.09-.1,.13-.14,.15-.15,.01-.01,.05-.06,.08-.11,.04-.05,.08-.11,.1-.14,0-.02,.04-.06,.21-.24,0-.01,.02-.02,.02-.03v-.03h.02s.02-.03,.03-.04c0-.01-.01-.03,0-.05-.02-.03-.02-.06-.01-.08-.02-.04-.05-.08-.07-.13l-.02-.04c-.21-.1-.64-.44-.65-.44-.03-.03-.06-.06-.09-.09-.02-.02-.04-.05-.06-.07-.18-.07-.37-.12-.53-.12-.11,0-.2,.02-.27,.08-.03,.07-.12,.17-.19,.24,0,.03-.04,.06-.08,.08,0,.03,0,.06-.01,.07,0,0,0,.01,0,.02,0,0,.02,0,.03,0,0,0,.03,0,.05,.02,.04-.01,.08-.02,.13-.02,.12,0,.23,.06,.29,.1,.03,0,.06,.03,.08,.05h0s.09,.2,.09,.2c0,.02,0,.04,0,.05h0s.02,.08,.03,.1Zm-.26-1.82v.02h-.01s-.03,.02-.08,.02c-.03,0-.08,0-.12,0-.05,0-.09,0-.1,0-.29,.05-.59,.18-.86,.29-.12,.05-.23,.1-.34,.14-.2,.07-.35,.14-.47,.19-.08,.04-.15,.07-.21,.09-.03,0-.1,.1-.14,.56,0,.02,0,.03,0,.04,0,.05-.02,.1-.03,.15v.04c-.05,.15-.16,.57,.04,.8,.02,.02,.05,.05,.07,.05,.06-.03,.09-.06,.09-.06,.09-.09,.28-.21,.57-.38,.04-.02,.09,0,.11,.04,.02,.04,.01,.09-.02,.14,0,0-.02,.02-.04,.05-.04,.04-.11,.13-.24,.28l-.17,.2c-.2,.25-.42,.5-.45,.54v.02s-.02,.05-.03,.08h0c-.02,.08-.07,.29-.07,.3-.02,.04-.02,.33,0,.44h0c0,.1-.07,1.17-.05,1.35v.05h0c0,.09,0,.19,.01,.29,0,.02-.01,.09-.02,.11-.02,.05-.08,.15-.12,.23-.03,.05-.29,.22-.49,.25-.01,0-.02,0-.03,0-.08,0-.19-.05-.24-.29h0v-.04c-.03-.06-.07-.19-.07-.31,0-.09,.01-.18,.02-.26,0-.05,.01-.11,.02-.16,0-.02,0-.04,.02-.07,.02-.1,.08-.31,.16-1.01h0v-.02s.04-.1,.03-.14c-.02-.05-.07-.07-.13-.06h0c-.05,.07-.32,.33-.56,.55l-.05,.05s-.03,.03-.03,.03c-.05,.05-.09,.22-.08,.32v.02h-.01s-.04,.07-.06,.1c-.01,.03-.03,.06-.05,.08h-.03s-.03,.02-.03,.02v.02h-.04c-.06-.01-.13-.02-.22-.02h-.02s-.09,0-.14,0h-.02c-.1-.02-.16-.09-.23-.17-.04-.05-.09-.1-.14-.14h0s-.04-.06-.05-.07h0s-.02-.06-.04-.09v-.02s-.01-.06-.03-.09v-.02h0v-.02s.02-.03,.02-.05v-.04s0-.08,0-.12c0-.02,0-.03,0-.04v-.02s-.01-.06-.03-.09c0-.03-.01-.04-.02-.06h0v-.02s.02-.1,.04-.15h.01s.06-.07,.08-.09l.06-.06c.57-.54,1.69-1.98,1.73-2.03,.06-.07,.13-.24,.17-.37,.02-.04,.07-.17,.06-.29v-.02s0-.12-.04-.17c-.04-.04-.1-.05-.2-.04,0,0-.02,0-.04,.01-.15,.03-.62,.14-1.08,.14-.38,0-.65-.07-.82-.21-.21-.2-.25-.44-.26-.63v-.02h.02c.17-.11,.41-.16,.73-.16,.18,0,.38,.02,.56,.03,.23-.03,.52-.08,.69-.12,.09-.02,.14-.03,.17-.03,.1-.01,.15-.07,.17-.11h.01c.11-.09,.1-.21,.07-.37,0-.08,.02-.4,.01-.46,0-.15,0-.3-.01-.45v-.26s-.01-.84-.05-1.05c0-.03,0-.06-.02-.08,0-.04-.02-.07-.03-.1h0v-.02h0v-.02s0-.02-.01-.03h0s0-.03,0-.04c0-.03-.02-.05-.02-.06h0v-.02c-.07-.08-.08-.16-.05-.23,.04-.09,.15-.14,.28-.13,.06,0,.12,.03,.16,.07,.2,.18,.31,.4,.4,.56l.02,.03c.03,.06,.06,.12,.1,.17,.12,.19,.11,.41,.1,.62v.08s0,.02,0,.03v.09s0,.03,0,.05h0s0,.04,.02,.07h0v.02h0s0,.03,.01,.04c.02,.03,.11,.13,.17,.19,.05,.06,.08,.09,.09,.11,.04,.05,.15,.18,.18,.19,.1,.08,.42,.38,.49,.5h.04c.16,.04,.58,.1,.79,.26,.02,.02,.05,.04,.09,.07,.22,.17,.42,.32,.42,.42Zm-1.8-.77s-.14-.23-.18-.28h-.02c-.08-.12-.21-.27-.27-.28-.02,0-.04,0-.07,0h-.01s0,.04,0,.04c0,.03-.02,.05-.02,.06v.04s0,.06-.01,.08c-.02,.08-.04,.2-.04,.28,0,.11,.03,.29,.08,.35,.03,.04,.07,.06,.1,.07,.02,0,.06-.01,.08-.02,.04-.01,.13-.03,.22-.05,.06-.01,.13-.03,.14-.03,.02,0,.04-.02,.04-.04,.03-.07-.02-.19-.04-.24Zm-1.5,3.48h-.02c-.11,.1-.24,.21-.25,.24,0,.01-.01,.03-.02,.07-.01,.04-.04,.11-.04,.14,.02,.02,.04,.03,.06,.03,.05-.02,.34-.21,.37-.24,.01-.02,.02-.05,.03-.06,0-.01,0-.03,0-.05,0-.02,.02-.08,.01-.1,0,0-.05-.02-.15-.02Zm-12.52-6.12c-.2-.19-.34-.22-.56-.02-.23,.2-.32,.72-.45,1.27-.23,.99-.66,1.51-1.24,2.28-.32,.43-1.45,1.94-1.05,2.05,.54,.17,1.62-1.69,1.9-2.13,.44-.69,.93-1.31,1.42-1.96,.45-.6,.54-.97-.02-1.5Zm-.85,2.93c-.17,.03-.27,.11-.31,.3,.49,.83,.34,1.86,.27,2.77-.03,.41-.04,.72-.16,1.09-.14,.42-.29,.92-.18,1.38,.14,.59,.21,1.49,.86,1.59,.21-.23,.14-.54,.21-.84l.07-4.78c.21-.42,.03-.97-.21-1.29-.14-.2-.34-.21-.55-.21Zm8.2,6.04l-.02,.04c-.13,.35-.4,.61-.58,.72-.05,.03-.1,.04-.15,.04-.15,0-.28-.13-.41-.25l-.02-.02c-.11-.1-.21-.23-.31-.34-.07-.08-.13-.16-.2-.24-.05-.06-.1-.11-.14-.15-.22-.25-.35-.39-.59-.75-.05,.06-.1,.1-.16,.14-.04,.03-.08,.06-.12,.1-.06,.06-.11,.12-.16,.17-.26,.28-.52,.55-.89,.56h-.05c-.11,0-.23-.01-.33-.1,0,0-.03-.03-.09-.11-.02-.02-.03-.04-.04-.06h0v-.02c-.1-.15,.19-.34,.6-.61,.29-.2,.62-.41,.76-.6-.31-.47-.54-.86-.61-1.51v-.05h0s-.01-.04,0-.06v-.02h.01c.08-.09,.36-.15,.72-.23,.14-.03,.28-.06,.33-.08,.04-.02,.1-.05,.16-.08,.14-.08,.32-.19,.48-.19,.1,0,.17,.03,.23,.1,.07,.07,.12,.17,.18,.27,.03,.06,.07,.12,.11,.18h0v.26c-.18,.4-.47,.86-.74,1.26,.1,.14,.67,.82,.72,.87,.37,.33,.72,.48,1.12,.65l.19,.09Zm-2.31-2.93s-.02,0-.04,0c-.08,0-.23,.04-.36,.07-.13,.04-.26,.07-.36,.08,.09,.09,.19,.2,.28,.3,.09,.11,.21,.23,.26,.28,.02-.04,.05-.07,.08-.12,.11-.15,.27-.39,.23-.52,0-.04-.04-.07-.08-.09Zm-1.57-3.32s-.04,.05-.06,.07c-.03,.02-.09,.06-.14,.07-.02,0-.03,0-.05,0h0s-.07,.05-.12,.09c-.12,.08-.27,.19-.41,.24-.09,.04-.42,.27-.48,.4-.02,.04-.01,.08,0,.11,.04,.06,.14,.08,.32,.08,.09,0,.18,0,.27-.01,.09,0,.18,0,.26,0,.14,0,.22,.02,.24,.05,.09,.14,.13,.29,.1,.37,0,.03-.02,.04-.04,.06-.06,.04-.54,.22-.68,.26,0,0-.04,.01-.08,.03-.15,.05-.5,.17-.65,.17h0c-.1,0-.27-.13-.41-.23-.08-.06-.16-.12-.22-.15l-.04-.02v.05c.02,.25,.05,.6,.07,.81h0v.02c.06,.05,.13,.07,.22,.07,.06,0,.13-.01,.19-.02,.04,0,.07-.01,.1-.01h.01s.09-.02,.31-.1c.11-.04,.22-.08,.26-.09,.18,.04,.53,.45,.51,.66-.02,.19-.19,.35-.27,.42h-.02c-.05,0-.1,0-.14,0-.27,0-.45,.12-.75,.4-.2,.2-.19,.36-.17,.43,.02,.06,.06,.11,.11,.12,.05,0,.11,0,.16,0,.25,0,.55-.06,.64-.21,.07-.06,.26-.12,.41-.14h.01c.12,0,.27,.22,.38,.56,.03,.11,0,.25-.05,.33-.02,.03-.05,.05-.08,.05h-.25c-.15,0-.35,0-.44,.06-.04,.02-.09,.06-.14,.1-.14,.1-.33,.24-.43,.24h-.02s-.08-.02-.11-.02h-.04s-.08,0-.14-.06l-.06-.06v.08c.06,.37,.07,.63,.07,.83,0,.21-.02,.37-.03,.52,0,.03,0,.06,0,.08,0,.11,0,.24-.06,.29-.02,.02-.05,.03-.1,.03-.1,0-.27-.06-.43-.23-.17-.17-.45-.58-.45-1.42,0-.12,0-.18,.01-.23,0-.04,0-.07,0-.11,.01-.06,.13-1.13,.16-1.45,0-.07,.02-.45,.02-.58,0-.43,.11-1.61,.18-2.39,.06-.59,.08-.8,.07-.83h0c-.09-.15-.26-.22-.41-.28-.13-.05-.23-.1-.26-.17-.01-.03-.01-.06,0-.11,.13-.32,.21-.35,.75-.53,.08-.03,.17-.06,.28-.09,.15-.05,.25-.12,.34-.18,.04-.03,.07-.05,.11-.07h0c.12-.18,.32-.29,.54-.29,.17,0,.34,.06,.5,.17,.3,.24,.78,.8,.88,.93,.11,.17,.15,.28,.11,.32-.07,.07-.12,.13-.15,.19-.06,.08-.13,.17-.2,.26-.01,.02-.03,.03-.04,.05Zm-2.07,3.52c0,.1,0,.22,.01,.37v.09l.05-.08c.04-.08,.14-.16,.25-.25,.18-.15,.38-.32,.4-.52h0c-.01-.09-.06-.13-.15-.13-.09-.01-.45,.03-.52,.04h-.02v.02c0,.08,0,.2-.01,.31,0,.05,0,.1,0,.14Zm1.47-4.12c0-.08-.03-.17-.1-.24h-.01s-.07-.03-.1-.04c-.03,0-.06-.02-.1-.03h-.02c-.06,.05-.25,.12-.44,.19-.23,.08-.46,.17-.52,.22-.11,.1-.3,.84-.29,.97,0,.12,.08,.16,.17,.2,.02,.01,.03,.02,.05,.03h.04c.07-.15,.25-.38,.7-.66,.03-.02,.07-.05,.11-.08,.19-.13,.49-.32,.52-.55Zm3.44-.03c-.06-.21-.53-1.08-.59-1.08-.22-.25-.53-.31-.84-.29-.06,.13-.18,.22-.27,.28-.22,.12-.76,.33-.91,.32-.11,0-.13,.02-.25,.18-.12,.15,.39,.5,.54,.59,.14,.09,.53-.05,.93-.2,.15-.09,.26-.04,.27,0,.01,.04,.02,.1,.04,.13,.04,.36-.79,1.19-.83,1.22-.05,.07-.29,.27-.3,.28-.07,.08-.13,.17-.15,.3-.02,.16,.02,.56,.07,.64,.07,.13,.04,.19,.21,.28,.17,.09,1.26-.3,1.55-.22,.19,.05,.3-.11,.34-.27,.07-.17,.11-.47-.04-.43-.28,.07-1.47,.42-1.24-.18,.52-1.14,1.14-1.03,1.23-1.04,.26-.02,.31-.31,.25-.5Z"/><path class="d" d="M57.58,4.61v2.91l-3.98,.09,.02,3.08h-1.53V4.93l5.49-.32Zm0,13.27l-3.92-.24-.02-3.15-1.56-.04v5.9l5.49,.44v-2.91Zm-3.23-7.19h3.23v-2.43l-3.24,.07,.02,2.36Zm-3,3.01l2.28,.06-.02-2.33h-2.27V4.97l-1.37,.08v15.13l1.37,.11v-6.6Zm3.01-2.27v2.35l3.22,.08v-2.44h-3.22Zm.02,3.09v2.44l3.2,.2v-2.55l-3.2-.08Zm-4.39,6.73v2.92c0,.32,.27,.63,.59,.66l6.42,.76c.32,.04,.59-.2,.59-.52v-3.21l-7.6-.61ZM57.58,3.56V.53c0-.33-.27-.56-.59-.52l-6.42,.76c-.32,.04-.59,.33-.59,.66V3.99l7.6-.44Zm-17.16,1.05v2.91l3.98,.09-.02,3.08h1.53V4.93l-5.49-.32Zm0,16.18l5.49-.44v-5.9l-1.55,.04-.02,3.15-3.92,.24v2.91Zm3.24-12.47l-3.24-.07v2.43h3.22l.02-2.36Zm2.98,11.96l1.37-.11V5.05l-1.37-.08v6.45h-2.27l-.02,2.33,2.29-.06v6.6Zm-6.23-8.87v2.44l3.21-.08,.02-2.35h-3.22Zm0,3.17v2.55l3.19-.2,.02-2.44-3.2,.08Zm0,7.26v3.21c0,.33,.26,.56,.59,.52l6.42-.76c.32-.04,.59-.34,.59-.66v-2.92l-7.59,.61ZM48.02,3.99V1.42c0-.33-.27-.62-.59-.66L41.01,0c-.32-.04-.59,.2-.59,.52V3.56l7.59,.44Z"/></g></g></g></svg>