<?xml version="1.0" encoding="UTF-8" standalone="no"?>
<svg
   viewBox="0 0 320.00001 60"
   version="1.1"
   id="svg49"
   sodipodi:docname="top_main_ihg.svg"
   width="320"
   height="60"
   inkscape:version="1.1.2 (b8e25be833, 2022-02-05)"
   xmlns:inkscape="http://www.inkscape.org/namespaces/inkscape"
   xmlns:sodipodi="http://sodipodi.sourceforge.net/DTD/sodipodi-0.dtd"
   xmlns="http://www.w3.org/2000/svg"
   xmlns:svg="http://www.w3.org/2000/svg">
  <sodipodi:namedview
     id="namedview51"
     pagecolor="#ffffff"
     bordercolor="#666666"
     borderopacity="1.0"
     inkscape:pageshadow="2"
     inkscape:pageopacity="0.0"
     inkscape:pagecheckerboard="0"
     showgrid="false"
     height="137px"
     inkscape:zoom="0.57575412"
     inkscape:cx="414.23933"
     inkscape:cy="196.26433"
     inkscape:window-width="1920"
     inkscape:window-height="1017"
     inkscape:window-x="-1928"
     inkscape:window-y="-332"
     inkscape:window-maximized="1"
     inkscape:current-layer="svg49" />
  <defs
     id="defs7">
    <style
       id="style2">.cls-1{fill:none;}.cls-2{clip-path:url(#clip-path);}.cls-3{fill:#231f20;}</style>
    <clipPath
       id="clip-path">
      <rect
         class="cls-1"
         width="1837.59"
         height="392.56"
         id="rect4"
         x="0"
         y="0" />
    </clipPath>
  </defs>
  <g
     id="Layer_2"
     data-name="Layer 2"
     transform="translate(-67.794999,4.71)">
    <g
       id="Layer_1-2"
       data-name="Layer 1">
      <g
         class="cls-2"
         clip-path="url(#clip-path)"
         id="g45">
        <polygon
           class="cls-3"
           points="108.36,27.4 135.06,27.4 135.06,49.77 142.44,49.77 142.44,0.81 135.06,0.81 135.06,22.35 108.36,22.35 108.36,0.81 101.03,0.81 101.03,49.77 108.36,49.77 "
           id="polygon9" />
        <rect
           class="cls-3"
           x="71.989998"
           y="0.81"
           width="7.3200002"
           height="48.950001"
           id="rect11" />
        <path
           class="cls-3"
           d="m 194.92,26.21 v 19 a 17.52,17.52 0 0 1 -9.46,2.51 c -11.46,0 -19.3,-10.13 -19.3,-22.92 0,-12 6.88,-22 18.34,-22 7.91,0 12.42,3.7 15.75,7.84 h 0.37 V 2.14 A 68.75,68.75 0 0 0 184.79,0 C 168.16,0 158,12.13 158,25.44 c 0,14.56 11,25.14 26.94,25.14 7.91,0 14.05,-3 17.38,-4 V 26.21 Z"
           id="path13" />
        <path
           class="cls-3"
           d="m 204.16,4.26 a 2.94,2.94 0 0 1 5.88,0 2.94,2.94 0 0 1 -5.88,0 m 5.35,0 a 2.41,2.41 0 1 0 -4.82,0 2.41,2.41 0 1 0 4.82,0 m -3.41,-1.5 h 1 c 0.68,0 1.12,0.28 1.12,0.88 v 0 a 0.77,0.77 0 0 1 -0.6,0.78 l 0.77,1.23 h -0.66 L 207,4.54 h -0.3 v 1.12 h -0.63 z m 1,1.34 c 0.33,0 0.5,-0.15 0.5,-0.42 v 0 c 0,-0.3 -0.18,-0.41 -0.5,-0.41 h -0.37 V 4.1 Z"
           id="path15" />
        <polygon
           class="cls-3"
           points="245.08,11.02 231.09,11.02 231.09,19.11 228.71,19.11 228.71,0.86 231.09,0.86 231.09,9.1 245.08,9.1 245.08,0.86 247.45,0.86 247.45,19.11 245.08,19.11 "
           id="polygon17" />
        <path
           class="cls-3"
           d="M 252.5,10.1 V 9.89 c 0,-5.18 4.72,-9.26 12,-9.26 7.28,0 12,4.08 12,9.21 V 10 c 0,5.16 -4.73,9.3 -11.92,9.3 -7.36,0 -12.08,-4.14 -12.08,-9.24 M 274,10 V 9.8 c 0,-4.06 -3.5,-7.38 -9.52,-7.38 -6.02,0 -9.48,3.13 -9.48,7.45 v 0.2 c 0,4.39 3.93,7.4 9.6,7.4 5.67,0 9.4,-3.06 9.4,-7.47"
           id="path19" />
        <polygon
           class="cls-3"
           points="285.99,2.69 278.49,2.69 278.49,0.85 295.87,0.85 295.87,2.69 288.36,2.69 288.36,19.11 285.99,19.11 "
           id="polygon21" />
        <polygon
           class="cls-3"
           points="302.73,17.27 316.34,17.27 316.34,19.11 300.36,19.11 300.36,0.86 315.73,0.86 315.73,2.7 302.73,2.7 302.73,8.85 313.69,8.85 313.69,10.69 302.73,10.69 "
           id="polygon23" />
        <polygon
           class="cls-3"
           points="323.41,17.27 335.18,17.27 335.18,19.11 321.04,19.11 321.04,0.86 323.41,0.86 "
           id="polygon25" />
        <path
           class="cls-3"
           d="m 338.06,13.54 h 2.32 c 0.39,2.25 2.1,4 7,4 3.91,0 6.1,-1.32 6.1,-3.54 0,-2.22 -1.61,-2.84 -6.61,-3.42 C 341.87,10 339,8.77 339,5.5 c 0,-2.81 2.94,-4.87 7.74,-4.87 4.8,0 7.79,1.68 8.27,5 h -2.17 c -0.56,-2.38 -2.55,-3.22 -6.1,-3.22 -3.85,0 -5.51,1.17 -5.51,3 0,1.64 1.19,2.58 6.3,3.17 5.36,0.61 8.22,1.68 8.22,5.28 0,3.17 -3.12,5.44 -8.4,5.44 -6.12,0 -8.83,-2.58 -9.29,-5.8"
           id="path27" />
        <path
           class="cls-3"
           d="m 228.72,31.47 h 8.67 c 4.06,0 7.48,1.5 7.48,5.36 v 0.1 c 0,3.17 -2.68,4.75 -5.23,5.21 l 6.69,7.58 h -2.86 l -6.54,-7.4 h -5.84 v 7.4 h -2.37 z m 8.83,9.06 c 3,0 4.95,-1.25 4.95,-3.57 v -0.1 c 0,-2.61 -2.07,-3.58 -4.95,-3.58 h -6.46 v 7.25 z"
           id="path29" />
        <polygon
           class="cls-3"
           points="253.91,47.88 267.51,47.88 267.51,49.72 251.53,49.72 251.53,31.47 266.9,31.47 266.9,33.31 253.91,33.31 253.91,39.46 264.86,39.46 264.86,41.3 253.91,41.3 "
           id="polygon31" />
        <path
           class="cls-3"
           d="m 271.54,44.16 h 2.32 c 0.39,2.24 2.1,4 7,4 3.91,0 6.1,-1.33 6.1,-3.55 0,-2.22 -1.6,-2.84 -6.6,-3.42 -5,-0.58 -7.84,-1.79 -7.84,-5.06 0,-2.8 2.93,-4.87 7.73,-4.87 4.8,0 7.79,1.68 8.27,5 h -2.17 c -0.56,-2.38 -2.55,-3.22 -6.1,-3.22 -3.85,0 -5.51,1.18 -5.51,3 0,1.64 1.2,2.58 6.3,3.17 5.36,0.61 8.22,1.68 8.22,5.28 0,3.17 -3.11,5.44 -8.4,5.44 -6.12,0 -8.83,-2.58 -9.29,-5.79"
           id="path33" />
        <path
           class="cls-3"
           d="M 293.83,40.71 V 40.5 c 0,-5.18 4.72,-9.26 12,-9.26 7.28,0 12,4.08 12,9.21 v 0.21 c 0,5.16 -4.72,9.29 -11.92,9.29 -7.2,0 -12.07,-4.13 -12.07,-9.24 m 21.51,-0.08 v -0.2 c 0,-4.06 -3.5,-7.38 -9.52,-7.38 -6.02,0 -9.52,3.12 -9.52,7.43 v 0.2 c 0,4.4 3.93,7.4 9.6,7.4 5.82,0 9.44,-3.06 9.44,-7.45"
           id="path35" />
        <path
           class="cls-3"
           d="m 323.74,31.47 h 8.68 c 4.06,0 7.48,1.5 7.48,5.36 v 0.1 c 0,3.17 -2.68,4.75 -5.24,5.21 l 6.69,7.58 h -2.86 L 332,42.32 h -5.84 v 7.4 h -2.38 z m 8.83,9.06 c 3,0 5,-1.25 5,-3.57 v -0.1 c 0,-2.61 -2.07,-3.58 -5,-3.58 h -6.45 v 7.25 z"
           id="path37" />
        <polygon
           class="cls-3"
           points="351.77,33.31 344.26,33.31 344.26,31.47 361.64,31.47 361.64,33.31 354.14,33.31 354.14,49.72 351.77,49.72 "
           id="polygon39" />
        <path
           class="cls-3"
           d="m 365,44.16 h 2.32 c 0.39,2.24 2.1,4 7,4 3.91,0 6.11,-1.33 6.11,-3.55 0,-2.22 -1.61,-2.84 -6.62,-3.42 -5.01,-0.58 -7.83,-1.79 -7.83,-5.06 0,-2.8 2.93,-4.87 7.73,-4.87 4.8,0 7.79,1.68 8.27,5 h -2.17 c -0.56,-2.38 -2.55,-3.22 -6.1,-3.22 -3.85,0 -5.51,1.18 -5.51,3 0,1.64 1.2,2.58 6.3,3.17 5.36,0.61 8.22,1.68 8.22,5.28 0,3.17 -3.11,5.44 -8.4,5.44 -6.12,0 -8.83,-2.58 -9.29,-5.79"
           id="path41" />
        <path
           class="cls-3"
           d="m 378.47,16.6 a 7.75,7.75 0 0 1 -6,2.69 c -3.75,0 -6.23,-1.82 -6.23,-4.89 0,-2.91 2.26,-4.49 4.58,-5.36 a 5.26,5.26 0 0 1 -2,-4.06 c 0,-2.81 2.3,-4.4 4.89,-4.4 2.76,0 4.61,1.79 4.61,4.25 0,1.81 -1.43,3.57 -4.22,4.67 l 4.44,4.5 2.88,-4.32 h 2 l -3.65,5.52 3.83,3.91 h -2.7 z m -5.91,0.92 a 6.39,6.39 0 0 0 4.84,-2 l -5.26,-5.39 c -2.16,0.8 -3.75,2 -3.75,4.17 0,2 1.47,3.24 4.17,3.24 m 0.38,-9.07 c 2.57,-1.1 3.53,-2.22 3.53,-3.68 A 2.5,2.5 0 0 0 373.7,2.29 2.65,2.65 0 0 0 370.78,5 c 0,1.37 0.94,2.45 2.16,3.44"
           id="path43" />
      </g>
    </g>
  </g>
</svg>
