<svg xmlns="http://www.w3.org/2000/svg" viewBox="0 0 100.02 19.38"><defs><style>.cls-1{fill:#6a6d6f;}</style></defs><g id="Layer_2" data-name="Layer 2"><g id="a"><path class="cls-1" d="M99.25.28h-19V.74a4.18,4.18,0,0,1,2.39,4v9.87h0L71.78.28h-4V.74a4.79,4.79,0,0,1,3,4.22V14.7a4.16,4.16,0,0,1-2.39,3.95v.46h5.38v-.46a4.18,4.18,0,0,1-2.39-3.95V4.34h0l11.43,15h.46V4.7A4,4,0,0,1,87.36.88h2.69V16.32c0,1.8-2,2.34-2.39,2.34v.46h7.48v-.46c-.4,0-2.39-.54-2.39-2.34V.88h2.37c3,0,4.36,3.34,4.6,3.93h.3L99.27.29Z"/><path class="cls-1" d="M67.22,14.59c-.24.59-1.61,3.93-4.6,3.93H57.89V9.72H59.8c3,0,2.82,1.21,3.31,2.61h.3V6.52h-.3c-.48,1.4-.32,2.61-3.31,2.61H57.89V.87H61c3,0,4.36,3.34,4.6,3.93h.3L65.16.28H52.81V.74A2.93,2.93,0,0,1,55.2,3.35v12.7a2.51,2.51,0,0,1-2.39,2.61v.46h14l.75-4.52h-.3Z"/><path class="cls-1" d="M50.52,10H45.44v.51c1.05,0,2.39.22,2.39,1.75v5.86a9.74,9.74,0,0,1-3.95.7c-5,0-6.48-5-6.48-9.36S39.18.6,43.88.6a6.46,6.46,0,0,1,5.73,4.68h.27l-.48-4.2A15.38,15.38,0,0,0,43.89,0a9.07,9.07,0,0,0-9.36,9.41c0,5.57,3.5,10,9.36,10,2.37,0,4.38-.78,5.35-.78a.77.77,0,0,1,.81.51h.48V10Z"/><path class="cls-1" d="M33.38,14.59c-.24.59-1.61,3.93-4.6,3.93H24.05V9.72H26c3,0,2.82,1.21,3.31,2.61h.3V6.52h-.3C28.79,7.92,29,9.13,26,9.13H24.05V.87h3.12c3,0,4.36,3.34,4.6,3.93h.3L31.32.28H19V.74a2.93,2.93,0,0,1,2.39,2.61v12.7c0,1.8-.65,2.56-1.86,2.61-.73,0-1.91.24-4.41-2.47L9.68,10.41c2.31-.38,5-1.75,5-4.84,0-3.74-3-5.27-6.35-5.27H0V.76A2.93,2.93,0,0,1,2.39,3.37v12.7A2.93,2.93,0,0,1,0,18.68v.46H7.48v-.46a2.93,2.93,0,0,1-2.39-2.61V10.53h.19c1.83.24,2.53,1.53,7.34,6.78,1.86,2,3.74,1.78,6.89,1.83H32.93l.75-4.52h-.3ZM5.08,9.91v-9H8.31c2,0,3.6,2,3.6,4.6s-1.56,4.44-3.6,4.44Z"/></g></g></svg>