<svg xmlns="http://www.w3.org/2000/svg" viewBox="0 0 89.02 27.54"><defs><style>.cls-1{fill:#6a6d6f;}</style></defs><g id="Layer_2" data-name="Layer 2"><g id="a"><polygon class="cls-1" points="14.11 0.18 14.11 15.02 14.11 15.02 16 15.02 16 15.02 16 0.18 14.11 0.18"/><path class="cls-1" d="M10.74,13.12c-.35,0-.7-.57-.7-.57L5.63,6.49l6-6.31H9L1.88,7.59V.18H0V15H1.88V10.41L4.3,7.87l4.28,5.88A2.9,2.9,0,0,0,10.7,15h1v-1.9h-.91Z"/><path class="cls-1" d="M42.22.18h-5V15h1.88V9.91h3.09c2.91,0,5.28-1.95,5.28-4.85S45.13.19,42.22.19Zm0,7.82H39.13V2.08h3.09c1.86,0,3.37,1.11,3.37,3S44.08,8,42.22,8Z"/><polygon class="cls-1" points="48.63 0.18 48.63 2.13 53.31 2.13 53.31 15.02 53.31 15.02 55.21 15.02 55.21 15.02 55.21 2.13 59.89 2.13 59.89 0.18 48.63 0.18"/><path class="cls-1" d="M67.55,0a7.52,7.52,0,0,0-7.41,7.61A7.41,7.41,0,1,0,75,7.61,7.53,7.53,0,0,0,67.55,0Zm0,13.24A5.55,5.55,0,0,1,62.1,7.61,5.46,5.46,0,1,1,73,7.61,5.55,5.55,0,0,1,67.55,13.24Z"/><polygon class="cls-1" points="87.1 0.2 87.1 11.46 79.08 0.2 77.22 0.2 77.22 15.02 79.1 15.02 79.1 3.56 87.36 15.02 89 15.02 89 0.2 87.1 0.2"/><polygon class="cls-1" points="32.44 0.19 26.65 7.99 20.86 0.19 18.89 0.19 18.89 15.02 20.78 15.02 20.78 3.55 26.14 10.62 27.16 10.62 32.53 3.55 32.53 15.02 34.41 15.02 34.41 0.19 32.44 0.19"/><path class="cls-1" d="M0,22.84a.13.13,0,0,1,.13-.13H.59a.13.13,0,0,1,.13.13v1.89H3.2V22.84a.13.13,0,0,1,.13-.13h.45a.13.13,0,0,1,.13.13v4.49a.13.13,0,0,1-.13.13H3.33a.13.13,0,0,1-.13-.13v-2H.72v2a.13.13,0,0,1-.13.13H.14A.13.13,0,0,1,0,27.33Z"/><path class="cls-1" d="M7.92,22.65A2.45,2.45,0,1,1,5.48,25.1,2.43,2.43,0,0,1,7.92,22.65Zm0,4.21A1.77,1.77,0,1,0,6.16,25.1,1.76,1.76,0,0,0,7.92,26.86Z"/><path class="cls-1" d="M12.52,23.35H11.41a.13.13,0,0,1-.13-.13v-.38a.13.13,0,0,1,.13-.13h2.92a.13.13,0,0,1,.13.13v.38a.13.13,0,0,1-.13.13H13.22v4a.13.13,0,0,1-.13.13h-.45a.13.13,0,0,1-.13-.13v-4Z"/><path class="cls-1" d="M15.81,22.84a.13.13,0,0,1,.13-.13h2.71a.13.13,0,0,1,.13.13v.38a.13.13,0,0,1-.13.13H16.51v1.38h1.81a.13.13,0,0,1,.13.13v.38a.13.13,0,0,1-.13.13H16.51v1.46h2.14a.13.13,0,0,1,.13.13v.37a.13.13,0,0,1-.13.13H15.94a.13.13,0,0,1-.13-.13V22.84Z"/><path class="cls-1" d="M20.41,22.84a.13.13,0,0,1,.13-.13H21a.13.13,0,0,1,.13.13v4H23a.13.13,0,0,1,.13.13v.37a.13.13,0,0,1-.13.13H20.55a.13.13,0,0,1-.13-.13V22.84Z"/><path class="cls-1" d="M24.1,26.78l.18-.28c.06-.09.16-.12.23-.05a2,2,0,0,0,1.09.47.68.68,0,0,0,.77-.63c0-.41-.35-.66-1-.94s-1.23-.65-1.23-1.44a1.33,1.33,0,0,1,1.49-1.26,2.22,2.22,0,0,1,1.25.4.16.16,0,0,1,0,.23l-.17.26a.16.16,0,0,1-.24.07,2.05,2.05,0,0,0-.92-.34c-.57,0-.77.36-.77.61s.3.62.86.86c.79.32,1.46.69,1.46,1.52a1.38,1.38,0,0,1-1.51,1.28A2.15,2.15,0,0,1,24.15,27a.14.14,0,0,1,0-.22Z"/><path class="cls-1" d="M31.58,24.91h0l-.16-.18a1.39,1.39,0,0,1-.47-1,1.14,1.14,0,0,1,1.24-1.1,1.11,1.11,0,0,1,1.21,1.08c0,.65-.65,1.09-.92,1.27l1,.95a2.41,2.41,0,0,0,.26-1c0-.15.06-.19.19-.16l.28.05c.16,0,.12.15.12.21a3.49,3.49,0,0,1-.41,1.3l.63.61c.08.08.14.16,0,.31l-.18.18a.19.19,0,0,1-.29,0l-.54-.54a1.92,1.92,0,0,1-1.48.62,1.27,1.27,0,0,1-1.37-1.26,1.65,1.65,0,0,1,.94-1.36ZM32.06,27a1.33,1.33,0,0,0,1-.49L32,25.28a1.16,1.16,0,0,0-.67.95.74.74,0,0,0,.78.73Zm.75-3.21a.6.6,0,0,0-.64-.58.56.56,0,0,0-.6.58,1,1,0,0,0,.39.69l.15.15c.2-.12.71-.39.71-.84Z"/><path class="cls-1" d="M38.08,22.84a.13.13,0,0,1,.13-.13h1.85a1.46,1.46,0,0,1,1.48,1.45,1.51,1.51,0,0,1-1,1.38l.93,1.72a.13.13,0,0,1-.12.2h-.53a.12.12,0,0,1-.11-.06l-.9-1.8h-1v1.73a.13.13,0,0,1-.13.13h-.44a.13.13,0,0,1-.13-.13V22.84ZM40,25a.83.83,0,1,0,0-1.65H38.79V25Z"/><path class="cls-1" d="M43.2,22.84a.13.13,0,0,1,.13-.13H46a.13.13,0,0,1,.13.13v.38a.13.13,0,0,1-.13.13H43.9v1.38h1.81a.13.13,0,0,1,.13.13v.38a.13.13,0,0,1-.13.13H43.9v1.46H46a.13.13,0,0,1,.13.13v.37a.13.13,0,0,1-.13.13H43.33a.13.13,0,0,1-.13-.13V22.84Z"/><path class="cls-1" d="M47.5,26.78l.18-.28c.06-.09.16-.12.23-.05a2,2,0,0,0,1.09.47.68.68,0,0,0,.77-.63c0-.41-.35-.66-1-.94s-1.23-.65-1.23-1.44A1.33,1.33,0,0,1,49,22.65a2.22,2.22,0,0,1,1.25.4.16.16,0,0,1,0,.23l-.17.26a.16.16,0,0,1-.24.07,2.05,2.05,0,0,0-.92-.34c-.57,0-.77.36-.77.61s.3.62.86.86c.79.32,1.46.69,1.46,1.52A1.38,1.38,0,0,1,49,27.54,2.15,2.15,0,0,1,47.55,27a.14.14,0,0,1,0-.22Z"/><path class="cls-1" d="M52.71,23.35H51.6a.13.13,0,0,1-.13-.13v-.38a.13.13,0,0,1,.13-.13h2.92a.13.13,0,0,1,.13.13v.38a.13.13,0,0,1-.13.13H53.41v4a.13.13,0,0,1-.13.13h-.45a.13.13,0,0,1-.13-.13v-4Z"/><path class="cls-1" d="M55.1,27.29l2.08-4.57s.08-.07.12-.07h.07a.31.31,0,0,1,.12.07l2.07,4.57a.12.12,0,0,1-.12.18H59a.17.17,0,0,1-.16-.1l-.42-.93H56.21c-.14.31-.28.62-.41.93a.16.16,0,0,1-.16.1h-.43a.12.12,0,0,1-.12-.18Zm3.07-1.44L57.34,24h0l-.83,1.86h1.69Z"/><path class="cls-1" d="M60.72,22.84a.13.13,0,0,1,.13-.13h.45a.13.13,0,0,1,.13.13v2.8a1.14,1.14,0,1,0,2.27,0V22.84a.13.13,0,0,1,.13-.13h.45a.13.13,0,0,1,.13.13v2.85a1.85,1.85,0,0,1-3.69,0V22.84Z"/><path class="cls-1" d="M66.28,22.84a.13.13,0,0,1,.13-.13h1.85a1.46,1.46,0,0,1,1.48,1.45,1.51,1.51,0,0,1-1,1.38l.93,1.72a.13.13,0,0,1-.12.2H69a.12.12,0,0,1-.11-.06L68,25.6H67v1.73a.13.13,0,0,1-.13.13h-.44a.13.13,0,0,1-.13-.13V22.84ZM68.2,25a.83.83,0,1,0,0-1.65H67V25Z"/><path class="cls-1" d="M70.76,27.29l2.08-4.57s.08-.07.12-.07H73a.31.31,0,0,1,.12.07l2.07,4.57a.12.12,0,0,1-.12.18h-.43a.17.17,0,0,1-.16-.1l-.42-.93H71.87c-.14.31-.28.62-.41.93a.16.16,0,0,1-.16.1h-.43a.12.12,0,0,1-.12-.18Zm3.07-1.44L73,24h0l-.83,1.86h1.69Z"/><path class="cls-1" d="M76.5,22.77a.12.12,0,0,1,.13-.12h.17l2.94,3.41h0V22.85a.13.13,0,0,1,.13-.13h.43a.13.13,0,0,1,.13.13v4.57a.12.12,0,0,1-.13.12h-.18L77.18,24h0v3.3a.13.13,0,0,1-.13.13h-.43a.13.13,0,0,1-.13-.13V22.77Z"/><path class="cls-1" d="M83,23.35H81.91a.13.13,0,0,1-.13-.13v-.38a.13.13,0,0,1,.13-.13h2.92a.13.13,0,0,1,.13.13v.38a.13.13,0,0,1-.13.13H83.72v4a.13.13,0,0,1-.13.13h-.45a.13.13,0,0,1-.13-.13v-4Z"/><path class="cls-1" d="M86,26.78l.18-.28c.06-.09.16-.12.23-.05a2,2,0,0,0,1.09.47.68.68,0,0,0,.77-.63c0-.41-.35-.66-1-.94S86,24.7,86,23.91a1.33,1.33,0,0,1,1.49-1.26,2.22,2.22,0,0,1,1.25.4.16.16,0,0,1,0,.23l-.17.26a.16.16,0,0,1-.24.07,2.05,2.05,0,0,0-.92-.34c-.57,0-.77.36-.77.61s.3.62.86.86c.79.32,1.46.69,1.46,1.52a1.38,1.38,0,0,1-1.51,1.28A2.15,2.15,0,0,1,86.05,27a.14.14,0,0,1,0-.22Z"/></g></g></svg>