<svg xmlns="http://www.w3.org/2000/svg" viewBox="0 0 79.99 53.8"><defs><style>.cls-1{fill:#6a6d6f;}</style></defs><g id="Layer_2" data-name="Layer 2"><g id="a"><path class="cls-1" d="M.14,51.51c0-.09.14-.08.14,0,.06,1.22.69,2,1.81,2S3.84,52.87,3.84,52C3.84,51,3.15,50.54,2,50a2.59,2.59,0,0,1-1.74-2.4A2.05,2.05,0,0,1,2.55,45.6a4.42,4.42,0,0,1,1.2.16.59.59,0,0,1,.45.72c0,.18-.09.67-.12.93,0,.1-.14.06-.14,0a1.53,1.53,0,0,0-1.55-1.52A1.3,1.3,0,0,0,.92,47.25c0,.91.64,1.41,1.43,1.81,1.61.8,2.27,1.47,2.23,2.67A2.29,2.29,0,0,1,2,53.8a3.65,3.65,0,0,1-1.47-.27A.84.84,0,0,1,0,52.85,4.6,4.6,0,0,1,.13,51.5"/><path class="cls-1" d="M10,52.21c0,1.07.14,1.21.91,1.28a.07.07,0,1,1,0,.14c-.47,0-1,0-1.38,0s-.92,0-1.34,0a.07.07,0,1,1,0-.14c.64-.09.81-.16.83-1.28,0-.43,0-1.84,0-2.27,0-1,0-2.2,0-2.63,0-1.31-.25-1.31-.83-1.39-.09,0-.12-.14,0-.14.35,0,1,0,1.34,0l1.18,0c.1,0,.09.13,0,.14-.56.1-.71.11-.74,1.39,0,.38,0,1.74,0,2.61,0,.44,0,1.86,0,2.29"/><path class="cls-1" d="M17.24,50.1c-.52.78-1.21,1.95-1.57,2.6s-.3.71.39.78c.09,0,.12.14,0,.14l-1.16,0-1.22,0a.07.07,0,0,1,0-.14,1.45,1.45,0,0,0,1.21-.73c.66-.9,1.45-2,2.1-3-.68-1.06-1.44-2.25-2-3.08-.36-.53-.53-.66-1-.71-.09,0-.12-.14,0-.14.4,0,.9,0,1.22,0s.86,0,1.32,0c.12,0,.09.14,0,.14-.58.06-.58.25-.36.66.4.72.88,1.55,1.42,2.43.48-.76.94-1.53,1.3-2.24s.29-.77-.18-.85c-.09,0-.12-.14,0-.14l1.12,0,1,0a.07.07,0,1,1,0,.14c-.38,0-.62.08-1.09.73-.69,1-1.36,1.92-1.86,2.7.65,1,1.66,2.59,2.27,3.42.38.52.62.67,1.05.71a.07.07,0,1,1,0,.14c-.42,0-.9,0-1.22,0s-.77,0-1.23,0a.07.07,0,1,1,0-.14c.51,0,.49-.25.26-.66-.34-.59-1.09-1.74-1.69-2.73"/><path class="cls-1" d="M29.34,51.51c0-.09.14-.08.14,0,.06,1.22.69,2,1.81,2S33,52.87,33,52c0-1.05-.69-1.49-1.87-2.08a2.59,2.59,0,0,1-1.74-2.4,2.05,2.05,0,0,1,2.32-1.95,4.27,4.27,0,0,1,1.19.16.59.59,0,0,1,.45.72c0,.18-.09.67-.12.93,0,.1-.14.06-.14,0a1.53,1.53,0,0,0-1.55-1.52,1.3,1.3,0,0,0-1.47,1.36c0,.91.64,1.41,1.43,1.81,1.61.8,2.27,1.47,2.23,2.67A2.29,2.29,0,0,1,31.2,53.8a3.65,3.65,0,0,1-1.47-.27.84.84,0,0,1-.53-.68,4.6,4.6,0,0,1,.12-1.35"/><path class="cls-1" d="M39.14,52.4c0,.76.18.8.86.81h1.09c1.09,0,1.3-.7,1.45-1.49,0-.09.16-.1.16,0a11.9,11.9,0,0,1-.06,1.54c0,.28.4.38-.09.38-.65,0-1.83,0-3.06,0l-2.14,0a.07.07,0,1,1,0-.14c.69-.08.83-.19.86-1.28,0-.88,0-1.77,0-2.67s0-1.45,0-2.25c0-1,0-1.28-.9-1.38-.09,0-.12-.14,0-.14.43,0,1.09,0,1.52,0,.82,0,2,0,2.73,0,.38,0,.59,0,.56.32S42,46.87,42,47.3c0,.09-.17.09-.16,0,0-.63-.22-1-.88-1.1a17.29,17.29,0,0,0-1.79,0c0,1.05,0,2,0,3.16.53,0,1.38,0,2.17,0,.38,0,.36-.14.45-.13s0,.06,0,.32a5.2,5.2,0,0,1-.13.77c0,.09-.16.09-.16,0,0-.51-.32-.51-.86-.53-.23,0-1.05,0-1.47,0,0,.62,0,1.86,0,2.65"/><path class="cls-1" d="M53.81,53.48c0,.23,0,.27,0,.28s-.1,0-.29-.21c-.83-.92-1.7-1.84-3.29-3.4-1.25-1.23-2.25-2.24-2.79-2.73,0,1,0,3.39.12,5.15,0,.51.25.83,1,.91.09,0,.12.14,0,.14l-1.38,0-1,0a.07.07,0,1,1,0-.14c.47-.09.64-.2.69-.85.1-1.4.13-3.41.13-4.45,0-.68,0-1.52,0-2.25,0-.19,0-.24,0-.25s.09,0,.27.2c1,1,2,2.12,3.31,3.39,1.13,1.1,2.08,2,2.78,2.68,0-1.49,0-3.12-.07-4.88,0-.92-.16-1.06-.88-1.16a.07.07,0,1,1,0-.14l1.18,0,1,0c.1,0,.08.14,0,.14-.49.07-.62.42-.65,1-.08,2-.13,3.8-.13,6.57"/><path class="cls-1" d="M58.53,51.51c0-.09.14-.08.14,0,.06,1.22.69,2,1.81,2s1.75-.64,1.75-1.48c0-1.05-.69-1.49-1.87-2.08a2.6,2.6,0,0,1-1.74-2.4,2.05,2.05,0,0,1,2.32-1.95,4.42,4.42,0,0,1,1.2.16.59.59,0,0,1,.45.72c0,.18-.09.67-.12.93,0,.1-.14.06-.14,0a1.53,1.53,0,0,0-1.55-1.52,1.3,1.3,0,0,0-1.47,1.36c0,.91.64,1.41,1.43,1.81,1.61.8,2.27,1.47,2.23,2.67A2.29,2.29,0,0,1,60.4,53.8a3.65,3.65,0,0,1-1.47-.27.84.84,0,0,1-.53-.68,4.6,4.6,0,0,1,.12-1.35"/><path class="cls-1" d="M68.32,52.4c0,.76.18.8.86.81h1.09c1.09,0,1.3-.7,1.45-1.49,0-.09.16-.1.16,0a10.22,10.22,0,0,1-.07,1.54c0,.28-.27.38-.77.38-.65,0-1.83,0-3.07,0l-1.47,0a.07.07,0,1,1,0-.14c.69-.08.83-.19.86-1.28,0-.88,0-1.77,0-2.67s0-1.45,0-2.25c0-1,0-1.28-.9-1.38-.09,0-.12-.14,0-.14.43,0,1.09,0,1.52,0,.82,0,2,0,2.73,0,.38,0,.58,0,.56.32s-.08.78-.14,1.21c0,.09-.17.09-.16,0,0-.63-.22-1-.88-1.1a17.22,17.22,0,0,0-1.79,0c0,1.05,0,2,0,3.16.53,0,1.38,0,2.17,0,.38,0,.36-.14.45-.13s0,.06,0,.32a5.2,5.2,0,0,1-.13.77c0,.09-.16.09-.16,0,0-.51-.32-.51-.86-.53-.23,0-1,0-1.47,0,0,.62,0,1.86,0,2.65"/><path class="cls-1" d="M75.55,51.51c0-.09.14-.08.14,0,.06,1.22.69,2,1.81,2s1.75-.64,1.75-1.48c0-1.05-.69-1.49-1.87-2.08a2.6,2.6,0,0,1-1.74-2.4A2.05,2.05,0,0,1,78,45.6a4.42,4.42,0,0,1,1.2.16.59.59,0,0,1,.45.72c0,.18-.09.67-.12.93,0,.1-.14.06-.14,0a1.53,1.53,0,0,0-1.55-1.52,1.3,1.3,0,0,0-1.47,1.36c0,.91.64,1.41,1.43,1.81,1.61.8,2.27,1.47,2.23,2.67a2.29,2.29,0,0,1-2.57,2.07A3.65,3.65,0,0,1,76,53.53a.84.84,0,0,1-.53-.68,4.6,4.6,0,0,1,.12-1.35"/><path class="cls-1" d="M63.52,35.27s0,0,.06,0,0,0-.06,0"/><polygon class="cls-1" points="62.82 35.66 62.94 35.64 62.91 35.64 62.82 35.66"/><path class="cls-1" d="M62.66,35.79c-.09.08-.28.09-.3.18s.26-.12.39-.19l-.08,0v0Z"/><path class="cls-1" d="M62.11,36.27l.06,0h0c-.16,0-.07,0-.07,0"/><path class="cls-1" d="M62.17,36.24h0"/><path class="cls-1" d="M61.9,36.39l.06-.06h-.1c0,.05,0,.08,0,.06"/><path class="cls-1" d="M61.8,36.31h0"/><path class="cls-1" d="M61.85,36.31h0s-.07,0-.06,0"/><path class="cls-1" d="M62,36.21c.1,0,0,0,0,.06.17-.06.17-.12,0-.06"/><path class="cls-1" d="M62.34,35.87l-.05.05a.38.38,0,0,1,.11-.05Z"/><path class="cls-1" d="M61.3,36.54l.09-.07h-.07s0,.05,0,.07"/><path class="cls-1" d="M61.22,36.47h.11s0,0-.11,0"/><path class="cls-1" d="M61.71,36.25h0Z"/><path class="cls-1" d="M60.86,36.61l.11,0-.06,0h0Z"/><path class="cls-1" d="M60.65,36.64a.38.38,0,0,1-.2,0,.58.58,0,0,0,.19,0s0-.05,0-.07"/><path class="cls-1" d="M61,36.57c.06,0,.07,0,.07-.06h0Z"/><polygon class="cls-1" points="60.92 36.53 61.01 36.52 61.01 36.51 60.92 36.53"/><path class="cls-1" d="M61.38,36.29c-.1.07,0,.07.09.07-.1,0,0,0-.09-.07"/><path class="cls-1" d="M61.2,36.41l-.1,0h.12s0,0,0,0"/><polygon class="cls-1" points="61.06 36.45 61.1 36.44 61.05 36.44 61.06 36.45"/><path class="cls-1" d="M60.57,36.54l-.19,0a.41.41,0,0,1,.16,0c.07,0,0,0,0,0"/><polygon class="cls-1" points="59.81 36.55 59.82 36.55 59.82 36.54 59.81 36.55"/><path class="cls-1" d="M60.58,36.54h.1a.12.12,0,0,0-.1,0"/><path class="cls-1" d="M60.27,36.59l-.08,0s.06,0,.08,0"/><path class="cls-1" d="M60.76,36.55h-.08l.06,0h0"/><path class="cls-1" d="M59.91,36.61l.16,0h-.25s0,0,.09.06"/><path class="cls-1" d="M60.28,36.59h0s-.07,0,0,0h-.2l.21,0h0Z"/><path class="cls-1" d="M60.28,36.58h0l.11,0h-.11c.15,0-.12-.06.09-.05-.08,0,0-.06-.17-.06s0,.07.08.12v0h0Z"/><path class="cls-1" d="M61.25,36.23h0s0,0,0,0"/><path class="cls-1" d="M61.18,36.26a.28.28,0,0,0-.07.13.45.45,0,0,1,.15-.11h0c.08,0,0,0,0-.05s0,0,0,0-.06,0-.08,0"/><path class="cls-1" d="M60.56,36.42h.17s0-.05-.09,0v0Z"/><path class="cls-1" d="M59.71,36.54l.1.08,0,0Z"/><polygon class="cls-1" points="59.5 36.55 59.56 36.58 59.56 36.54 59.5 36.55"/><path class="cls-1" d="M55.58,32.93a.47.47,0,0,0,.09.13.21.21,0,0,1,0-.12h-.06Z"/><path class="cls-1" d="M57.28,35.59a.83.83,0,0,0,.14.07s-.07,0-.14-.07"/><path class="cls-1" d="M59,27.68h0s0,0,0,0"/><path class="cls-1" d="M57.28,35.59l-.11-.1h0a.23.23,0,0,0,.14.12"/><path class="cls-1" d="M58.66,36.35h0"/><path class="cls-1" d="M58.76,36.38h0"/><path class="cls-1" d="M58.6,36.32l.06,0h0l-.08,0"/><path class="cls-1" d="M56,33.85l0,0s0,0,0,0"/><path class="cls-1" d="M59.13,36.48a.23.23,0,0,1-.09,0l.1,0v0"/><path class="cls-1" d="M60.1,36.34v0h0c-.06,0,0,0,0,0"/><path class="cls-1" d="M59.4,36.37h0c-.07,0-.13,0-.14,0s.14.07.13,0"/><path class="cls-1" d="M59.5,36.38h-.06s.07,0,.06,0"/><path class="cls-1" d="M58.55,36.31s0-.05,0-.05,0,.12,0,.05"/><polygon class="cls-1" points="59.32 36.28 59.36 36.23 59.29 36.23 59.32 36.28"/><path class="cls-1" d="M58.93,36.15l-.11,0s.07,0,.13,0,0,0,0,0"/><path class="cls-1" d="M59,36.18l.08,0-.08,0"/><path class="cls-1" d="M57.64,35.55l.09.08s0,0,0-.06-.07,0-.07,0"/><polygon class="cls-1" points="63.7 35.07 63.68 35.14 63.73 35.05 63.7 35.07"/><path class="cls-1" d="M63.54,35.13a.22.22,0,0,1,0,.06h.08Z"/><path class="cls-1" d="M49.21,13.84s0,0,0-.05,0,.05,0,.05"/><polygon class="cls-1" points="49.91 14 49.99 14.05 49.9 13.98 49.91 14"/><path class="cls-1" d="M50.2,14.08c.12,0,.26.13.34.08a2.14,2.14,0,0,1-.4-.14l0,.07h0Z"/><path class="cls-1" d="M50.94,14.13l-.06,0h0c.14.07,0,0,.08,0"/><path class="cls-1" d="M50.87,14.1c.05,0-.07,0,0,0"/><path class="cls-1" d="M51.17,14.19h-.08l.07.06c.06,0,.09,0,0-.06"/><path class="cls-1" d="M51.22,14.34l0,0Z"/><path class="cls-1" d="M51.14,14.28c0,.05,0,0,0,0l-.08-.07s0,.06,0,0"/><path class="cls-1" d="M51,14.23c-.16-.08-.2,0,0,0-.07-.06,0,0,0,0"/><path class="cls-1" d="M50.43,14.2l0,0h.07l-.12,0"/><path class="cls-1" d="M51.7,14.49l-.12,0,.05,0,.07,0"/><path class="cls-1" d="M51.7,14.61l-.07-.08s0,0,.07.08"/><path class="cls-1" d="M51.23,14.43l-.15-.14.12.12Z"/><path class="cls-1" d="M52.05,14.76l0-.11,0,.06,0,0Z"/><path class="cls-1" d="M52.39,15a.62.62,0,0,0-.1-.17c0,.05-.07,0-.06.05a.3.3,0,0,1,.16.12"/><path class="cls-1" d="M52,14.7a.09.09,0,0,0-.1,0l0,0h.06Z"/><polygon class="cls-1" points="51.88 14.72 51.96 14.77 51.88 14.72 51.88 14.72"/><path class="cls-1" d="M51.46,14.62c.12,0,0-.06,0-.11s0,.06,0,.11"/><path class="cls-1" d="M51.67,14.66l.1.05-.08-.09s0,0,0,0"/><polygon class="cls-1" points="51.8 14.75 51.8 14.73 51.77 14.71 51.8 14.75"/><path class="cls-1" d="M52.21,15l.15.11a.53.53,0,0,1-.1-.12c0-.05,0,0,0,0"/><polygon class="cls-1" points="52.74 15.53 52.75 15.53 52.74 15.52 52.74 15.53"/><path class="cls-1" d="M52.2,15h0a.6.6,0,0,1-.08-.08s0,.05.06.07"/><path class="cls-1" d="M52.45,15.18l.07,0-.07,0"/><path class="cls-1" d="M52.1,14.86h0"/><path class="cls-1" d="M52.08,14.87l.05.06,0-.06h0"/><path class="cls-1" d="M52.72,15.42a.71.71,0,0,1-.15-.07l0,0h0l.15.14a.16.16,0,0,0,0-.1"/><path class="cls-1" d="M52.45,15.18l-.09-.06a.35.35,0,0,1,.07.09c-.12-.09,0,.12-.1,0,0,.07,0,.07.07.16s0-.08,0-.13v0h0s0,.06,0,0l.13.14-.13-.17h0Z"/><path class="cls-1" d="M51.51,14.75h0"/><path class="cls-1" d="M51.51,14.75s0,0,0,0a.09.09,0,0,1,0,.06.33.33,0,0,0,.15,0,.41.41,0,0,1-.19,0h0c-.09,0,0,0,0,0"/><path class="cls-1" d="M52.05,15.06h0l.09,0L52,15s0,0,0,.08"/><path class="cls-1" d="M52.8,15.49l0,0,0,.07v-.12"/><polygon class="cls-1" points="52.91 15.72 52.96 15.75 52.94 15.68 52.91 15.72"/><path class="cls-1" d="M53,21a.63.63,0,0,0,0-.15A.41.41,0,0,1,53,21L53,21Z"/><path class="cls-1" d="M53.8,18a.79.79,0,0,0,0-.15s0,.08,0,.15"/><path class="cls-1" d="M46.78,22.29a.1.1,0,0,0,0,.05s0,0,0-.05"/><path class="cls-1" d="M53.8,18v.15a0,0,0,0,0,0,0,.22.22,0,0,0,0-.18"/><path class="cls-1" d="M53.4,16.48h0"/><path class="cls-1" d="M53.35,16.38l0,0,0,0"/><path class="cls-1" d="M53.42,16.54l0-.06h0a.43.43,0,0,1,0,.07"/><path class="cls-1" d="M53.22,16.13l0-.1a0,0,0,0,1,0,0,.22.22,0,0,1,.06.07"/><path class="cls-1" d="M53,16c0-.07,0-.15-.09-.1h0c0,.05,0,.11.1.1"/><path class="cls-1" d="M52.84,15.87l0,.05s0-.07,0-.05"/><path class="cls-1" d="M53.45,16.58s0,0,0,.05c0,.18.06-.11,0-.05"/><polygon class="cls-1" points="52.83 16.07 52.87 16.12 52.89 16.06 52.83 16.07"/><path class="cls-1" d="M53.07,16.43l.06.09s0-.07-.06-.12v0"/><path class="cls-1" d="M53.07,16.39a.41.41,0,0,0,0-.08.41.41,0,0,0,0,.08"/><path class="cls-1" d="M53.48,17.68s0,.07,0,.06v-.12s0,0,0,.06"/><polygon class="cls-1" points="48.91 13.84 48.94 13.85 49.01 13.81 48.91 13.84"/><path class="cls-1" d="M49.18,13.91l-.06-.06,0,.07h.08"/><path class="cls-1" d="M28.21,15s0-.05-.06,0,0,0,.06,0"/><polygon class="cls-1" points="28.8 14.62 28.82 14.63 28.91 14.6 28.8 14.62"/><path class="cls-1" d="M29.08,14.48c.09-.09.28-.09.3-.18s-.26.12-.39.19l.08,0v0Z"/><path class="cls-1" d="M29.63,14l-.06,0h0c.16,0,.06,0,.07,0"/><path class="cls-1" d="M29.56,14h0"/><path class="cls-1" d="M29.83,13.87l-.06.06h.1s.06-.08,0-.06"/><path class="cls-1" d="M29.93,14h0"/><path class="cls-1" d="M29.88,14h-.06s.07,0,.06,0"/><path class="cls-1" d="M29.77,14.05c-.09,0,0,0,0-.06-.17.06-.17.12,0,.06"/><path class="cls-1" d="M29.39,14.4l.05-.05a.38.38,0,0,1-.11.05Z"/><path class="cls-1" d="M30.43,13.72l-.09.07h.07s0,0,0-.07"/><path class="cls-1" d="M30.51,13.8H30.4s0,0,.11,0"/><path class="cls-1" d="M30,14h0"/><path class="cls-1" d="M30.87,13.66l-.11,0,.07,0h0Z"/><path class="cls-1" d="M31.09,13.62a.38.38,0,0,1,.2,0,.58.58,0,0,0-.19,0s-.05,0,0,.07"/><path class="cls-1" d="M30.76,13.7a.14.14,0,0,0-.08.06h0l0-.06Z"/><polygon class="cls-1" points="30.72 13.75 30.72 13.75 30.81 13.73 30.72 13.75"/><path class="cls-1" d="M30.35,14c.11-.07,0-.06-.08-.07.1,0,0,0,.08.07"/><path class="cls-1" d="M30.53,13.85l.1,0h-.12l0,0"/><polygon class="cls-1" points="30.63 13.82 30.69 13.83 30.67 13.81 30.63 13.82"/><path class="cls-1" d="M31.17,13.72l.19,0a.41.41,0,0,1-.16,0c-.07,0,0,0,0,0"/><polygon class="cls-1" points="31.92 13.71 31.92 13.72 31.93 13.71 31.92 13.71"/><path class="cls-1" d="M31.16,13.73s0,0,0,0h-.11a.12.12,0,0,0,.1,0"/><path class="cls-1" d="M31.46,13.67l.08,0-.08,0"/><path class="cls-1" d="M31,13.71h.08l-.07,0h0"/><path class="cls-1" d="M31.82,13.65l-.16,0h.25s0,0-.09-.06"/><path class="cls-1" d="M31.46,13.68h0s.07,0,0,0v0h0l-.11,0h.11c-.15,0,.12.06-.09.05.08,0,0,.05.17.06s0-.07-.08-.12h.2l-.21,0h0Z"/><path class="cls-1" d="M30.48,14h0s0,0,0,0"/><path class="cls-1" d="M30.55,14a.28.28,0,0,0,.07-.13.45.45,0,0,1-.15.11h0c-.08,0,0,0,0,0s0,0,0,0h.08"/><path class="cls-1" d="M31.18,13.85H31s0,.05.09,0v0Z"/><path class="cls-1" d="M32,13.72l-.09-.08,0,0,.08,0Z"/><polygon class="cls-1" points="32.17 13.72 32.23 13.71 32.17 13.68 32.17 13.72"/><path class="cls-1" d="M36.07,17.2a.39.39,0,0,1,0,.12h0c.05,0,0-.06-.09-.12"/><path class="cls-1" d="M34.45,14.67a.71.71,0,0,0-.15-.07s.07.05.15.07"/><path class="cls-1" d="M32.75,22.58a.08.08,0,0,0,0,0s0,0,0,0"/><path class="cls-1" d="M34.45,14.67l.11.1h0a.27.27,0,0,0-.14-.12"/><path class="cls-1" d="M33.07,13.92h0"/><path class="cls-1" d="M33,13.89h0"/><path class="cls-1" d="M33.14,13.94l-.06,0h0l.08,0"/><path class="cls-1" d="M32.6,13.79h.1l-.1,0v0"/><path class="cls-1" d="M31.63,13.92v0h0c.06,0,0,0,0,0"/><path class="cls-1" d="M32.33,13.9h0c.07,0,.13,0,.14,0s-.14-.07-.13,0"/><path class="cls-1" d="M32.24,13.88h.06s-.07,0-.06,0"/><path class="cls-1" d="M33.19,14s0,.05,0,.05,0-.12,0-.05"/><polygon class="cls-1" points="32.38 14.03 32.44 14.03 32.41 13.98 32.38 14.03"/><path class="cls-1" d="M32.81,14.11l.11,0a.32.32,0,0,0-.13,0s0,0,0,0"/><path class="cls-1" d="M32.78,14.09l-.08,0,.08,0"/><path class="cls-1" d="M34.09,14.72,34,14.64s0,0,0,.06.07,0,.07,0"/><polygon class="cls-1" points="28 15.21 28.03 15.19 28.05 15.12 28 15.21"/><path class="cls-1" d="M28.19,15.13a.22.22,0,0,1,0-.06h-.09l0,.06Z"/><path class="cls-1" d="M37,7.79s.05,0,0-.06-.06,0,0,.06"/><polygon class="cls-1" points="36.61 7.16 36.61 7.14 36.58 7.05 36.61 7.16"/><path class="cls-1" d="M36.27,6.6a2.68,2.68,0,0,1,.19.38l0-.08h0c-.09-.09-.09-.28-.19-.3"/><path class="cls-1" d="M36,6.35l0,.06h0c0-.14,0,0,0-.06"/><path class="cls-1" d="M36,6.41h0"/><path class="cls-1" d="M35.83,6.15l.06,0V6.11s-.08-.06-.06,0"/><path class="cls-1" d="M35.91,6.06v0"/><path class="cls-1" d="M35.91,6.06v.1s0-.07,0-.06,0,0,0,0"/><path class="cls-1" d="M36,6.21c.06.17.12.17.06,0,0,.09,0,0-.06,0"/><path class="cls-1" d="M36.37,6.58l0,0a.91.91,0,0,1,.06.11V6.58Z"/><path class="cls-1" d="M35.75,5.66V5.59s0,0-.07,0,0,.06.07.09"/><path class="cls-1" d="M35.75,5.59s0,0,0-.1Z"/><path class="cls-1" d="M36,6V6"/><path class="cls-1" d="M35.6,5.19V5.14l0,.11Z"/><path class="cls-1" d="M35.55,4.74a.58.58,0,0,0,0,.19s.05.05.07,0a.38.38,0,0,1,0-.2"/><path class="cls-1" d="M35.71,5.32v0l-.06,0c0,.06.05.07.06.07"/><polygon class="cls-1" points="35.7 5.29 35.71 5.29 35.69 5.2 35.7 5.29"/><path class="cls-1" d="M35.86,5.73c0-.09,0,0,.07-.08s-.07,0-.07.08"/><path class="cls-1" d="M35.77,5.49h0l0-.1V5.5Z"/><polygon class="cls-1" points="35.77 5.34 35.78 5.37 35.79 5.32 35.77 5.34"/><path class="cls-1" d="M35.67,4.85a1.1,1.1,0,0,0,0-.18.34.34,0,0,1,0,.15c0,.07,0,0,0,0"/><polygon class="cls-1" points="35.67 4.13 35.68 4.13 35.67 4.12 35.67 4.13"/><path class="cls-1" d="M35.68,4.86h0V5a.11.11,0,0,0,0-.1"/><path class="cls-1" d="M35.63,4.57l0-.08s0,.06,0,.08"/><path class="cls-1" d="M35.67,5V5s0,0,0,.06h0"/><path class="cls-1" d="M35.61,4.22a.65.65,0,0,1,0,.15v0h0v-.2s0,0-.06.09"/><path class="cls-1" d="M35.63,4.57a.54.54,0,0,1,0,.11.45.45,0,0,1,0-.11c0,.15.06-.11.05.09,0-.07.06,0,.06-.16s-.07,0-.12.07h0s0-.07,0,0V4.37l0,.21h0Z"/><path class="cls-1" d="M36,5.52h0s0,0,0,0"/><path class="cls-1" d="M36,5.52s0,0,0,0a.15.15,0,0,1,0-.07.33.33,0,0,0-.13-.07.43.43,0,0,1,.12.15h0c0,.1,0,0,0,0"/><path class="cls-1" d="M35.81,4.85V5s0,0,0-.09h0Z"/><path class="cls-1" d="M35.67,4l-.08.09,0,0Z"/><polygon class="cls-1" points="35.63 3.88 35.68 3.87 35.67 3.82 35.63 3.88"/><path class="cls-1" d="M39.39,0a.56.56,0,0,0-.14.08.21.21,0,0,1,.12,0V0Z"/><path class="cls-1" d="M36.66,1.66l-.08.14s.05-.07.08-.14"/><path class="cls-1" d="M44.79,3.31a.05.05,0,0,0,0-.05s0,0,0,.05"/><path class="cls-1" d="M36.66,1.66l.1-.11,0,0a.21.21,0,0,0-.12.14"/><path class="cls-1" d="M35.88,3h0"/><path class="cls-1" d="M35.85,3.1v0s0,0,0,0"/><path class="cls-1" d="M35.9,2.94l0,.06h0a.19.19,0,0,1,0-.07"/><path class="cls-1" d="M35.75,3.46V3.37l0,.1h0"/><path class="cls-1" d="M35.88,4.4h0v0c0-.06,0,0,0,0"/><path class="cls-1" d="M35.86,3.59c0,.07-.07.14,0,.13h0c0-.05,0-.11,0-.13"/><path class="cls-1" d="M35.85,3.75s0,.07,0,.06a.13.13,0,0,1,0-.06"/><path class="cls-1" d="M36,2.87c.1-.16-.12,0,0,0s0,0,0,0"/><polygon class="cls-1" points="35.95 3.64 35.99 3.68 36 3.61 35.95 3.64"/><path class="cls-1" d="M36.1,3.15l-.05.13s0,0,0,0a.43.43,0,0,1,0-.11"/><path class="cls-1" d="M36,3.36a.22.22,0,0,0,0-.08.2.2,0,0,0,0,.08"/><path class="cls-1" d="M36.68,2.08s0-.06,0-.07l-.08.09s0,0,.06,0"/><polygon class="cls-1" points="37.21 7.93 37.19 7.9 37.12 7.89 37.21 7.93"/><path class="cls-1" d="M37.07,7.7v.09l.06,0a.22.22,0,0,1-.06,0"/><path class="cls-1" d="M44.81,31.68s0,0,0,0,0,0,0,0"/><polygon class="cls-1" points="44.65 32.36 44.61 32.44 44.67 32.35 44.65 32.36"/><path class="cls-1" d="M44.58,32.64c0,.12-.13.26-.08.34a2.42,2.42,0,0,1,.14-.4l-.07,0v0Z"/><path class="cls-1" d="M44.54,33.36l0-.06v0c-.07.14,0,0,0,.08"/><path class="cls-1" d="M44.56,33.3c0,.05,0-.07,0,0"/><path class="cls-1" d="M44.48,33.51l-.06.07c0,.06,0,.08.07,0s0,0,0-.08"/><path class="cls-1" d="M44.36,33.6l0,0,0,0"/><path class="cls-1" d="M44.39,33.56c-.06,0,0,0,0,0l.06-.08s-.06,0,0,0"/><path class="cls-1" d="M44.44,33.46c.08-.16,0-.2,0,0,.06-.07.05,0,0,0"/><path class="cls-1" d="M44.45,32.87l0,.05V33a.54.54,0,0,1,0-.12"/><path class="cls-1" d="M44.14,34s0,.06,0,.07,0-.08,0-.11l-.05,0Z"/><path class="cls-1" d="M44.06,34.11l.08-.07s0,0-.08.07"/><path class="cls-1" d="M44.24,33.62v0l.13-.15-.13.12"/><path class="cls-1" d="M43.9,34.45,44,34.4l-.07,0,0,0Z"/><path class="cls-1" d="M43.78,34.62a.3.3,0,0,1-.12.16.42.42,0,0,0,.17-.1s0-.07,0-.06"/><path class="cls-1" d="M44,34.35c0-.05,0-.08,0-.09l0,0v.06Z"/><polygon class="cls-1" points="43.89 34.36 43.94 34.29 43.94 34.29 43.89 34.36"/><path class="cls-1" d="M44.16,33.86c-.08.06-.06,0-.11,0s.06,0,.11,0"/><path class="cls-1" d="M44,34.08l0,.09.09-.08s0,0,0,0"/><polygon class="cls-1" points="43.91 34.21 43.93 34.21 43.95 34.17 43.91 34.21"/><path class="cls-1" d="M43.65,34.61l-.12.15a.53.53,0,0,1,.12-.1c.05,0,0,0,0,0"/><polygon class="cls-1" points="43.12 35.14 43.13 35.13 43.12 35.13 43.12 35.14"/><path class="cls-1" d="M43.65,34.6h0l.08-.08a.17.17,0,0,0-.08.07"/><path class="cls-1" d="M43.48,34.85l0,.07s0,0,0-.07"/><path class="cls-1" d="M43.8,34.5h0"/><path class="cls-1" d="M43.79,34.49l-.06,0a.09.09,0,0,0,.06,0Z"/><path class="cls-1" d="M43.23,35.11a.37.37,0,0,1,.08-.14l0,0h0l-.16.14a.19.19,0,0,0,.11,0"/><path class="cls-1" d="M43.48,34.84h0s0,0,0,0h0l.06-.08a.71.71,0,0,1-.09.07c.09-.12-.13,0,0-.1-.07,0-.07,0-.16.07s.08,0,.14,0l-.14.13.17-.12h0Z"/><path class="cls-1" d="M43.91,33.92h0s0,0,0,0"/><path class="cls-1" d="M43.88,34a.26.26,0,0,0,0,.14s0-.11,0-.18h0c0-.1,0-.05-.05,0s0,0,0,0a.09.09,0,0,1-.06.05"/><path class="cls-1" d="M43.59,34.46l0,0,0,.09.13-.11s0,0-.09,0"/><path class="cls-1" d="M43.05,35.2h.12l-.05,0Z"/><polygon class="cls-1" points="42.9 35.35 42.97 35.33 42.93 35.3 42.9 35.35"/><path class="cls-1" d="M37.5,35.49a.45.45,0,0,0,.16,0,.17.17,0,0,1-.11-.06l0,0Z"/><path class="cls-1" d="M40.63,36.2a.8.8,0,0,0,.16-.05s-.08,0-.16.05"/><path class="cls-1" d="M36.08,29.43l0,0s0,0,0,0"/><path class="cls-1" d="M40.63,36.2h-.18a.25.25,0,0,0,.19,0"/><path class="cls-1" d="M42.16,35.78h0"/><path class="cls-1" d="M42.25,35.73l0,0,0,0"/><path class="cls-1" d="M42.1,35.81l.06,0h0l-.07,0"/><path class="cls-1" d="M42.59,35.55a.23.23,0,0,1-.07.06l.1,0a0,0,0,0,1,0,0"/><path class="cls-1" d="M43.17,34.79v0l-.05,0c0,.05,0,0,.05,0"/><path class="cls-1" d="M42.6,35.38c.07,0,.15-.05.1-.09h0c-.06,0-.12.05-.11.09"/><path class="cls-1" d="M42.78,35.24l-.05,0s.08,0,.05,0"/><path class="cls-1" d="M42,35.82c-.19,0,.11,0,0,0s0,0,0,0"/><polygon class="cls-1" points="42.52 35.27 42.58 35.28 42.57 35.22 42.52 35.27"/><path class="cls-1" d="M42.24,35.47h0l-.09.06.13-.06"/><path class="cls-1" d="M40.92,35.89s-.08,0-.06,0H41s0,0-.06,0"/><polygon class="cls-1" points="44.79 31.42 44.83 31.48 44.8 31.38 44.79 31.42"/><path class="cls-1" d="M44.74,31.64l.06-.06-.07,0a.21.21,0,0,1,0,.08"/><path class="cls-1" d="M25.11,32.05s0,0,.05,0-.05,0-.05,0"/><polygon class="cls-1" points="24.95 32.73 24.91 32.81 24.97 32.72 24.95 32.73"/><path class="cls-1" d="M24.88,33c0,.12-.13.26-.08.34a2.42,2.42,0,0,1,.14-.4l-.07,0v0Z"/><path class="cls-1" d="M24.84,33.74a.33.33,0,0,1,0-.06v0c-.07.14,0,.05,0,.08"/><path class="cls-1" d="M24.86,33.67s0-.06,0,0"/><path class="cls-1" d="M24.78,33.89l-.06.07c0,.06,0,.09.07,0s0-.05,0-.08"/><path class="cls-1" d="M24.66,34l0,0s0,0,0,0"/><path class="cls-1" d="M24.69,33.94c-.06,0,0,0,0,0l.06-.08s-.06,0,0,0"/><path class="cls-1" d="M24.74,33.84c.08-.15,0-.2,0,0,.06-.07.05,0,0,0"/><path class="cls-1" d="M24.75,33.24l0,0v.07a.37.37,0,0,1,0-.11"/><path class="cls-1" d="M24.44,34.42s0,.06,0,.07,0-.08,0-.11l-.05,0Z"/><path class="cls-1" d="M24.36,34.49l.08-.07s0,0-.08.07"/><path class="cls-1" d="M24.54,34v0l.13-.15-.13.12"/><path class="cls-1" d="M24.2,34.83l.11,0-.07,0Z"/><path class="cls-1" d="M24.08,35a.3.3,0,0,1-.12.16.5.5,0,0,0,.17-.1c-.05,0,0-.07-.05-.06"/><path class="cls-1" d="M24.26,34.72s0-.08,0-.09l0,0v.06Z"/><polygon class="cls-1" points="24.2 34.73 24.25 34.66 24.25 34.66 24.2 34.73"/><path class="cls-1" d="M24.46,34.24c-.08,0-.06,0-.11,0s.06,0,.11,0"/><path class="cls-1" d="M24.3,34.46l-.05.1.09-.08s0,0,0,0"/><polygon class="cls-1" points="24.21 34.58 24.23 34.58 24.25 34.55 24.21 34.58"/><path class="cls-1" d="M24,35l-.11.15L24,35c.05,0,0,0,0,0"/><polygon class="cls-1" points="23.42 35.52 23.43 35.51 23.42 35.5 23.42 35.52"/><path class="cls-1" d="M24,35h0l.08-.08A.11.11,0,0,0,24,35"/><path class="cls-1" d="M23.78,35.23l0,.07s0,0,0-.07"/><path class="cls-1" d="M24.1,34.88h0"/><path class="cls-1" d="M24.09,34.86l-.06,0,.06,0Z"/><path class="cls-1" d="M23.53,35.49a.6.6,0,0,1,.07-.14l0,0h0l-.16.14.11,0"/><path class="cls-1" d="M23.78,35.22h0s-.06,0,0,0h0l.06-.08a.71.71,0,0,1-.09.07c.09-.12-.13,0,0-.1-.07,0-.07,0-.16.08s.08,0,.14,0l-.14.13a1.09,1.09,0,0,0,.17-.13"/><path class="cls-1" d="M24.21,34.29h0s0,0,0,0"/><path class="cls-1" d="M24.18,34.37a.26.26,0,0,0,0,.14.37.37,0,0,1,0-.18h0c0-.1,0,0-.05,0s0,0,0,0a.09.09,0,0,1-.06,0"/><path class="cls-1" d="M23.89,34.83l0,0,0,.09.13-.11s0,0-.09,0"/><path class="cls-1" d="M23.35,35.58h.12l0,0Z"/><polygon class="cls-1" points="23.21 35.72 23.27 35.71 23.24 35.68 23.21 35.72"/><path class="cls-1" d="M17.8,35.87a.45.45,0,0,0,.16,0,.24.24,0,0,1-.11-.06Z"/><path class="cls-1" d="M20.93,36.57l.16,0s-.08,0-.16,0"/><path class="cls-1" d="M16.39,29.81l-.05,0s0,0,.05,0"/><path class="cls-1" d="M20.93,36.57h-.18a.25.25,0,0,0,.19,0"/><path class="cls-1" d="M25,31.34v0"/><path class="cls-1" d="M22.46,36.16h0"/><path class="cls-1" d="M22.55,36.11l0,0,0,0"/><path class="cls-1" d="M22.4,36.19l.06,0h0l-.07,0"/><path class="cls-1" d="M22.89,35.93a.23.23,0,0,1-.07.06l.1,0a0,0,0,0,1,0,0"/><path class="cls-1" d="M22.9,35.75c.08,0,.15,0,.1-.09h0c-.06,0-.13.05-.11.09"/><path class="cls-1" d="M23.08,35.61l0,0s.08,0,0,0"/><path class="cls-1" d="M22.3,36.19c-.19.05.11.05.05,0s0,0-.05,0"/><polygon class="cls-1" points="22.82 35.65 22.88 35.66 22.87 35.6 22.82 35.65"/><path class="cls-1" d="M22.42,35.9l.13-.06h0l-.09.06"/><path class="cls-1" d="M22.54,35.84l.08,0-.08,0"/><path class="cls-1" d="M21.22,36.26s-.08,0-.06,0h.12s0,0-.06,0"/><polygon class="cls-1" points="25.09 31.79 25.13 31.85 25.1 31.76 25.09 31.79"/><path class="cls-1" d="M25,32,25.1,32l-.07,0A.21.21,0,0,1,25,32"/><path class="cls-1" d="M35.91,18.43v-.11H36a.52.52,0,0,1-.11.1M35.71,17a2,2,0,0,0-.08-.22l.08-.23a.77.77,0,0,0,0,.15l0,0a.49.49,0,0,1-.07.28M35.28,16l-.08-.13.06-.06-.07,0-.09-.12h0a2.51,2.51,0,0,1,.27.18s-.06.07-.12.1m-.13,4.67v-.09l0,0,0,0h0l0-.06s0,0,0,0l0,0s.07,0,.07,0l-.13.13m-.44-5.41s0,0,.06,0a.34.34,0,0,1,0,.12l-.1-.1m-1.07-.82.09,0s-.12-.07-.15-.1a.45.45,0,0,1,.11,0c-.08,0-.17,0-.28-.11,0,0,0-.12.09-.13a.27.27,0,0,1,.21.14.57.57,0,0,0,.21.2s0-.09.11,0a.56.56,0,0,1,.17.29,4.28,4.28,0,0,0-.57-.37m-.11-.34h0m-6,6.42s0-.05,0,0ZM36,18.68c.09-.17,0-.13.13-.33-.06.08-.08,0-.11,0l.09-.14-.07,0A.37.37,0,0,0,36,18s0,0,0,0,.06-.29.09-.33,0-.17-.09-.2a.31.31,0,0,1,0-.08s.09,0,.06,0h0l-.06,0a.39.39,0,0,0,0-.16l0,.05,0-.06v0h0A.16.16,0,0,1,36,17a.67.67,0,0,1-.1-.32.48.48,0,0,0-.15-.32s.05.07,0,.09c-.07-.18-.23-.31-.25-.43h.05a1.35,1.35,0,0,0-.16-.34l0,0a2.67,2.67,0,0,1-.19-.28c-.07-.1-.16-.18-.23-.18s-.17-.16-.23-.23h0a.55.55,0,0,1-.19-.18c-.25-.09-.38-.29-.57-.4h0l-.18-.13c0,.06,0,0-.09-.07a.47.47,0,0,0-.25-.1L33.33,14c.14.09,0,.05-.06.09L33.2,14s0,.05,0,0-.21-.1-.25-.16H33l0,0c-.11,0-.07,0-.06-.05-.15,0-.2,0-.32,0,.15-.07-.29-.06-.18-.14-.11.06-.07,0-.14,0a.79.79,0,0,1,.35.15l-.11,0c0,.1.23,0,.28.07a.19.19,0,0,0-.14,0l0-.06a.6.6,0,0,1,.33.16c-.1,0,.1.08,0,.1l-.07,0a0,0,0,0,0,0,0l-.37-.11h0a2.74,2.74,0,0,0-.39-.09c0-.06-.17-.11-.12-.15s-.05.05-.18,0,.11-.06.15-.08-.1,0-.1-.07-.17.21-.07.24A.24.24,0,0,1,32,14a4.49,4.49,0,0,0-3.65,1.23l-.17.19c0-.08,0-.15-.08-.14l.07-.05c-.07,0-.18.19-.26.18s-.07.17-.11.25-.07,0,0,0-.08.1-.06,0c-.12.3-.27.57-.41.86a2.19,2.19,0,0,0-.27.89s0,0-.05,0-.06.1-.08.16l.07.18c0,.06-.06,0-.08,0-.06.31,0,.62,0,.87,0,.08.08,0,.1.08-.06-.07-.06,0-.06.09s0,.18,0,.13.09.37.22.3c0,.12,0,.11-.06.08a1.33,1.33,0,0,1,.07.38s.07.2.14.36.16.32.24.35c-.11-.05,0,0,0,.11l-.09,0a1.63,1.63,0,0,0,.11.17s0,.05,0,0,0,0,.08,0,.05.13.07.21h0l.05.07c0,.05-.09-.23.07-.07,0,0,0,.16.07.18s0-.1,0-.08l.1.12h-.09A4.75,4.75,0,0,0,29,22c0-.06.29.18.31.06h0c-.1-.07.07-.05.14,0-.1,0,.11.17-.11.07l.05.05.55,0c1.38,0,3.83-.32,4.74-2.47l.1,0A5.52,5.52,0,0,1,33,22.47l.14-.08c.08,0,.06,0,0,.07.12-.12.43-.1.47-.15s0-.07,0-.12.05.14.22,0c0,0-.07,0-.06,0s.1-.29.19-.31l0,.05c.16-.05.21-.31.3-.24l0,0c.16-.22.1,0,.27-.27h0c.09-.07.09-.16.19-.15l0,0a2.18,2.18,0,0,0,.21-.22.11.11,0,0,0,.07-.08c.06,0,.24-.25.27-.3s-.07,0-.07,0,.12-.06.14-.16.17.07.27-.1c0,0-.06.06-.06,0s0-.05,0-.06,0,0-.06,0,.11-.19.22-.35c-.05,0,0,0-.06,0s0-.26.11-.15c0-.18.1-.4.15-.59a.92.92,0,0,0,0-.44s0-.13.05-.19h0Z"/><path class="cls-1" d="M42.79,1l0,0,0,0v0l-.07,0s0,0,0,0l0,0s0-.07,0-.07l.13.13h-.09m-.07,7.43s0,0,0,0Zm-6.25-6a.46.46,0,0,0,0-.09.4.4,0,0,1-.1.15l0-.11c0,.08,0,.17-.11.28s-.13,0-.13-.09a.25.25,0,0,1,.14-.2.45.45,0,0,0,.2-.21s-.09,0,0-.11a.66.66,0,0,1,.3-.17,4.91,4.91,0,0,0-.38.55m-.34.1h0m1.3-1.24-.11.09s0,0,0-.06a.42.42,0,0,1,.12,0M38,.72a.59.59,0,0,1,.1.11l-.14.08L37.87.85l0,.07L37.79,1a0,0,0,0,1,0,0A1.6,1.6,0,0,1,38,.72m7,4s0,0,0,0a.36.36,0,0,0,.07-.3h0V4.19c-.08,0-.07-.11-.06-.24s0-.27-.09-.29,0-.26,0-.35h0c.06-.13-.12-.28-.15-.39s0-.06.07,0c-.12-.11-.1-.42-.16-.45s-.07,0-.12,0,.15,0,0-.21c0,0,0,.07,0,.06s-.3-.1-.31-.18l.06,0c-.05-.15-.32-.21-.25-.29l0,0c-.22-.16,0-.1-.28-.26h0c-.07-.08-.17-.08-.15-.18l0,0a2.2,2.2,0,0,0-.23-.2.11.11,0,0,0-.08-.07c0-.06-.26-.23-.31-.26s0,.07,0,.07a.16.16,0,0,0-.17-.13.15.15,0,0,0,0-.13,7.18,7.18,0,0,0-.8,0c-1.38,0-3.83.32-4.74,2.48l-.1,0A5.71,5.71,0,0,1,38.62.45l-.06,0h.1a1.84,1.84,0,0,1,.22-.17l-.14,0a.55.55,0,0,0-.33.14s.07,0,.09,0c-.18.07-.32.22-.44.25l0-.05a1.13,1.13,0,0,0-.33.16l0,0-.28.19c-.1.07-.19.15-.19.23s-.16.16-.24.22v0a1.12,1.12,0,0,1-.18.19c-.09.24-.3.37-.41.56h0l-.14.18c.06,0-.05,0-.07.09a.47.47,0,0,0-.1.24L36,2.77c.09-.13.05,0,.1.06L36,2.9s.06,0,0,0-.1.21-.17.24l0-.06h0l0,0c0,.11,0,.06,0,.06s0,.2,0,.31c-.07-.15-.06.28-.14.18.06.11,0,.06,0,.13a.67.67,0,0,1,.16-.34l0,.11c.1,0,0-.23.07-.28s0,.13,0,.13l-.06,0a.58.58,0,0,1,.17-.33c0,.1.08-.1.1,0l0,.07s0,0,0,0-.08.24-.11.36v0h0c0,.13-.06.25-.08.38s-.11.17-.15.11.05,0,0,.18-.06-.11-.08-.15-.05.1-.07.1.21.17.25.07A.21.21,0,0,1,36,4a4.23,4.23,0,0,0,1.26,3.55l.19.17c-.08,0-.16,0-.14.08l-.05-.06c0,.07.19.17.19.26l.25.1s0,.07-.05,0,.1.07,0,.05c.31.11.59.27.88.4a2.66,2.66,0,0,0,.91.27s0,0,0,0,.1.05.16.07l.18-.07c.06,0,0,.06,0,.08.32.06.64,0,.9,0,.08,0,0-.07.08-.09-.07.05,0,.06.1.06S41,9,41,9s.39-.09.31-.22c.12,0,.12,0,.08.06a1.46,1.46,0,0,1,.39-.07s.2-.07.37-.14a.79.79,0,0,0,.36-.23c-.05.1,0,0,.11,0l0,.09.18-.1,0,0s0,0,0-.08.14-.05.22-.07v0l.07,0s-.23.09-.07-.06c0,0,.17,0,.19-.07s-.1,0-.08,0l.12-.1v.1a4.63,4.63,0,0,0,.92-1c-.06,0,.18-.28.07-.3v0c-.07.09,0-.07,0-.14,0,.1.18-.11.07.11l.13-.14c.11,0,.17-.12.21-.26a1.51,1.51,0,0,1,.14-.44s0,0,0,0c.14-.22.09-.56.13-.6l0,0A.61.61,0,0,0,45,4.79"/><path class="cls-1" d="M64.17,29.67l0,0s0,0,0,0m-4.52,6.6h0ZM58.22,36A.27.27,0,0,1,58,35.9a.5.5,0,0,0-.21-.2s0,.09-.11,0a.56.56,0,0,1-.17-.29,4.28,4.28,0,0,0,.57.37l-.09,0a.4.4,0,0,1,.15.1l-.11,0c.08.05.17,0,.28.11s0,.12-.09.13m0,.06h0c-.05,0-.08,0,0,0M57,35a.77.77,0,0,1,0-.12.94.94,0,0,0,.1.1s-.05,0-.06,0m-.36-.47a2.51,2.51,0,0,1-.27-.18.27.27,0,0,1,.11-.1l.08.13-.06.06.07,0,.09.12s0,0,0,0m0-4.95v.09l0,0,0,0h0a.32.32,0,0,0,0,.07,0,0,0,0,1,0,0l0,0s-.07,0-.07,0a1.59,1.59,0,0,1,.13-.13M56,33.74s0-.1,0-.15l0,0a.49.49,0,0,1,.07-.28,2,2,0,0,0,.08.22l-.08.23m-.19-1.8a.33.33,0,0,0-.1,0l.11-.11v.11m9,.66a8.39,8.39,0,0,0,0-.87c0-.08-.08,0-.1-.08.06.07.06,0,.06-.09s0-.17,0-.13-.09-.37-.23-.3c0-.12,0-.11.06-.08a1,1,0,0,1-.06-.38s-.07-.2-.14-.36-.16-.32-.24-.35c.1.05,0,0,0-.11l.09,0-.1-.17s0,0,0,0,0,0-.09,0,0-.13-.07-.21h0l0-.07c0-.05.09.23-.07.07,0,0,0-.16-.07-.18s0,.1,0,.08l-.1-.12h.1a4.75,4.75,0,0,0-1.08-.9c0,.06-.29-.18-.31-.07h0c.1.07-.07.05-.14,0,.1,0-.11-.17.11-.07,0,0,0,0,0-.05l-.55,0c-1.38,0-3.83.32-4.74,2.47l-.1,0a5.57,5.57,0,0,1,1.69-2.77l-.14.08c-.08,0-.06,0,0-.07-.12.12-.43.1-.47.15s0,.08,0,.12-.05-.15-.22,0c0,0,.08,0,.06,0s-.1.29-.19.31l0-.05c-.16.05-.22.31-.3.24l0-.05c-.16.22-.1.05-.26.27h0c-.09.07-.09.16-.19.15l0,0a2.09,2.09,0,0,0-.2.22.11.11,0,0,0-.07.08c-.06,0-.24.25-.27.31.08-.09.07,0,.07,0s-.12.06-.13.16-.17-.07-.28.1c0,0,.06-.06.06,0s0,.05,0,.06,0,0,.06,0-.11.19-.22.35c.05,0,0,0,.06,0s0,.26-.11.15c0,.18-.1.4-.15.59a.92.92,0,0,0,0,.44s0,.13,0,.19h0a2.85,2.85,0,0,0-.13.33c0-.08.08-.05.11,0l-.09.14.07,0a.37.37,0,0,0,0,.18s0,0,0,0-.06.29-.09.33,0,.17.09.21a.31.31,0,0,1,0,.08s-.09,0-.06,0h0l.06,0a.39.39,0,0,0,0,.16s0,0,0,0l0,.06v0h0a.15.15,0,0,1,0,.11.67.67,0,0,1,.1.32.59.59,0,0,0,.11.27s0,0,0,0c.07.18.23.31.25.43h0a1.08,1.08,0,0,0,.17.34l0,0a2.67,2.67,0,0,1,.19.28c.07.1.16.18.23.18s.17.16.22.23H57a.55.55,0,0,1,.19.18c.25.09.38.29.57.4h0l.18.13c0-.06,0,0,.09.07a.47.47,0,0,0,.25.1l.13.05c-.14-.09,0-.05.06-.09l.07.07s0,0,0,0,.21.1.25.17h-.07l0,0c.11,0,.06,0,.05,0,.15,0,.2,0,.32,0-.15.07.29.06.19.14.11-.06.06,0,.14,0a.79.79,0,0,1-.35-.15l.12,0c-.05-.1-.23,0-.29-.07s.13,0,.14,0l0,.05a.68.68,0,0,1-.34-.16c.1,0-.1-.07,0-.1l.07,0a0,0,0,0,0,0,0l.37.11h0a2.74,2.74,0,0,0,.39.09c0,.06.18.11.12.15s.05,0,.18,0-.11.06-.15.08.1,0,.1.07.17-.2.08-.24a.29.29,0,0,1-.19,0,4.49,4.49,0,0,0,3.65-1.23l.17-.18c0,.08,0,.15.08.14l-.06.05c.07,0,.18-.19.26-.18s.07-.16.11-.25.07,0,0,.05.08-.1.06,0c.12-.3.27-.57.41-.86a2.36,2.36,0,0,0,.27-.88s0,0,0,0,.06-.1.08-.16l-.07-.18c0-.06.06,0,.08,0"/><path class="cls-1" d="M53.5,17.94a3.44,3.44,0,0,0-.12-.64.21.21,0,0,0,0,.07.28.28,0,0,1,0-.18l.06.1c0-.09-.1-.14-.12-.27s.07-.1.16,0a.25.25,0,0,1,0,.24.46.46,0,0,0,0,.29s.06-.08.06.09a.49.49,0,0,1-.1.32m0,.8V18.6a.09.09,0,0,0,0,0,.3.3,0,0,1-.06.11m-.14.77a.83.83,0,0,0,0-.15h.09l-.08,0,0-.15h0a1.5,1.5,0,0,1,0,.31.41.41,0,0,1-.15,0m-.14.74,0,.05a.58.58,0,0,1-.25.15,2,2,0,0,0,.1-.21l.23-.11-.1.12M53.53,17h0m-1.05-1.33a.19.19,0,0,1,.11.14,1.71,1.71,0,0,0-.11-.14m-.46,6,.08-.07a.23.23,0,0,0,.07.07H52m-2,1.08h-.19l.06-.06h.06l.09,0a.06.06,0,0,1,0,.05h0s.06,0,0,.06m-5.39-5.4v0s0,0,0,0m9.19,1.44s0-.23,0-.32l0,0a1.2,1.2,0,0,1,0-.27,3.49,3.49,0,0,1-.1-.68h0a1.64,1.64,0,0,0,0-.22c0,.07,0-.05,0-.11a.53.53,0,0,0-.1-.25.69.69,0,0,1-.05-.13c0,.16-.06,0-.11,0v-.1s0,.07,0,0-.07-.22,0-.29,0,0,.06,0h0v0c-.06-.09,0-.07,0-.07-.13-.08-.12-.16-.24-.2.16.06-.15-.24,0-.22-.12,0,0,0-.13-.06a.63.63,0,0,1,.13.35L53,16.1c0,.1.14.18.15.25s-.07-.12-.08-.11h.07a.51.51,0,0,1,.11.34c-.06-.08,0,.12-.06.08l0-.07s0,0,0,0a2.68,2.68,0,0,0-.18-.33l0,0,0-.06h0l-.21-.32c0-.05,0-.2,0-.19s-.07,0-.14-.11.12,0,.16.05,0-.11,0-.12-.27,0-.23.12l-.11-.12c.05,0,0,0,0,0h0a.12.12,0,0,1,0,0,4.54,4.54,0,0,0-1.47-1h-.18c-1.38,0-3.83.32-4.74,2.47l-.1,0a5.66,5.66,0,0,1,1.63-2.72h0a2.78,2.78,0,0,0-.84.43s0,0,0,0c-.06.12-.11,0-.17.06a1.3,1.3,0,0,0-.08.17c-.07,0,0,0-.06-.05-.27.17-.44.45-.65.6,0,.08.07,0,0,.12,0-.09-.05,0-.11,0s-.12.13-.12.07c0,.14-.21.32-.06.37-.06.11-.11.05-.1,0a1.11,1.11,0,0,1-.24.31,3.33,3.33,0,0,1-.16.35.74.74,0,0,0-.09.41c0-.11,0,0-.09.07l0-.09a1.33,1.33,0,0,0,0,.19s0,.05,0,.05,0,0,0,.09a.31.31,0,0,1-.11.19v0l0,.09c0,.06.1-.22.1,0,0,0-.12.11-.09.18,0-.11.06-.09.07-.05a.77.77,0,0,1,0,.15l-.07-.06a4.58,4.58,0,0,0,.1,1.37c.06,0,.07.32.17.26h0c0-.13.09,0,.1.09-.06-.08,0,.19-.13,0v.19c-.08.08,0,.2,0,.33a2.32,2.32,0,0,1,.22.41v0c.06.26.34.46.34.52h.06a.6.6,0,0,0,.27.41s0,0,0,0a.34.34,0,0,0,.16.26v0l.21.19c0-.06.13,0,.21.13s.19.2.28.14.18.19.25.26h0c0,.13.29.12.39.18s0,.06,0,.07c.17,0,.37.23.44.22s.06-.05.1-.07-.07.13.17.13c0,0-.07,0-.05,0s.28-.13.35-.08l-.06,0c.14.07.38-.07.39,0l0,0c.27,0,.11,0,.39,0h0c.12,0,.18-.06.24,0h0a1.61,1.61,0,0,0,.31,0,.41.41,0,0,0,.11,0c0,.07.35,0,.41,0-.12,0-.07,0,0-.06a.17.17,0,0,0,.21,0c0,.08.07.17.26.12,0,0-.08,0-.07,0a.08.08,0,0,1,.08,0s0,0,0,0,.22-.05.41-.09c-.06,0,0,0,0-.07s.21-.17.19,0c.15-.1.36-.21.54-.31a.92.92,0,0,0,.35-.28c0-.05.13-.06.18-.1l0,0a2.23,2.23,0,0,0,.34-.14c-.1,0-.09,0,0-.11l.17,0,0-.07a.27.27,0,0,0,.13-.13s0,0,0,0,.25-.16.31-.17.12-.12.08-.21A.13.13,0,0,0,53,21c0,.05,0,.08.06,0h0l0-.06.1-.12s0,0,0,.07a.14.14,0,0,1,0-.07v0h0a.15.15,0,0,1,.06-.11.72.72,0,0,1,.17-.29.42.42,0,0,0,.13-.33s0,.08,0,.09c.08-.17.07-.38.14-.48l.05,0a2.11,2.11,0,0,0,.13-.34h.05a3.22,3.22,0,0,1,.07-.32c0-.12,0-.24,0-.29"/><path class="cls-1" d="M41.65,35.94h0m.89-.57c-.1,0-.18.14-.25.15s.12-.06.11-.08v.07a.61.61,0,0,1-.34.12s0,0-.07,0a3.14,3.14,0,0,1-.57.45h.11a.53.53,0,0,0,.25-.1l.13,0c-.16,0,0-.06,0-.11H42s-.07,0,0-.05.23-.08.3-.06a.05.05,0,0,1,0,0h0c.1-.06.07,0,.08,0s.16-.12.2-.24c-.06.15.25-.15.23,0,0-.12,0,0,.07-.13a.83.83,0,0,1-.36.13l.06-.09Z"/><path class="cls-1" d="M41.2,27.28h0s0,0,0,0M36.87,34.7v-.15l.07.08a.16.16,0,0,0-.07.07m-1.1-2.1a.1.1,0,0,1,0,0s0,.06-.06,0v-.18l.06.06v.06l0,.08a.06.06,0,0,1-.05,0M44.62,31s.06,0,.08,0,0-.12,0,0c-.14-.3-.22-.59-.33-.89a2.52,2.52,0,0,0-.45-.82s0,0,0,0c-.12-.06,0-.11-.06-.17l-.18-.08c0-.07,0-.05,0-.06-.18-.26-.47-.42-.63-.62-.09,0,0,.07-.13,0,.09,0,0-.05,0-.11s-.14-.12-.07-.12c-.15,0-.34-.2-.38-.06-.11-.06-.05-.11,0-.1a1.09,1.09,0,0,1-.32-.23s-.19-.09-.36-.15a.77.77,0,0,0-.43-.08c.11,0,0,0-.07-.09l.1,0-.2-.05h0s0,0-.09,0-.13-.06-.2-.1h0l-.09,0c-.07,0,.23.1,0,.09,0,0-.12-.12-.18-.08.11,0,.09.05,0,.06h-.16l.06-.07a5.67,5.67,0,0,0-1.41.11c0,.06-.33.08-.26.17h0c.11,0,0,.07-.1.09.09-.06-.2,0,0-.13H38.7c-.08-.08-.21,0-.34,0a2.1,2.1,0,0,1-.42.22h0c-.26.06-.47.33-.53.34V28a.62.62,0,0,0-.41.26s0,0,0,0a.38.38,0,0,0-.26.16h0l-.2.2c.06,0,0,.12-.13.21s-.2.19-.15.27-.19.18-.26.24a0,0,0,0,1,0,0c-.13,0-.12.28-.18.38s-.06,0-.08,0c0,.16-.23.36-.22.43s0,.06.08.1-.14-.07-.13.16c0,0,0-.07,0,0s.14.27.09.34l0-.06c-.07.14.08.37,0,.38l-.05,0c0,.26,0,.11,0,.37h0c0,.11,0,.17,0,.23v0a1.5,1.5,0,0,0,0,.3.41.41,0,0,0,0,.11c-.07,0,0,.34,0,.4,0-.12,0-.07.06,0a.17.17,0,0,0,0,.21c-.08,0-.17.07-.12.26,0,0,0-.08,0-.07s0,.06,0,.08,0,0,.05,0,.06.21.1.39c0-.06,0,0,.07,0s.18.2,0,.18c.11.15.22.35.33.52a1.06,1.06,0,0,0,.29.34s.07.12.11.17l0,0c0,.18.06.12.15.32,0-.1,0-.08.11-.05a.94.94,0,0,0,0,.16l.07,0a.35.35,0,0,0,.14.13s0,0,0,0,.17.24.17.3.13.12.21.08l.05.07c-.05,0-.08,0,0,.06h0l0,0,.12.09.4,0A.54.54,0,0,1,38,35.4l.22.1h0a.71.71,0,0,0,.21,0c1.38,0,3.83-.32,4.74-2.47l.1,0a6,6,0,0,1-1.25,2.36l.28-.14h0l.07,0h0l.33-.21c.05,0,.2,0,.19,0s0-.07.12-.14,0,.12-.05.16.11,0,.13,0,0-.26-.12-.22a.24.24,0,0,1-.14.11,4.23,4.23,0,0,0,1.69-3.37,2,2,0,0,0,0-.25c.06.05.11.11.16,0v.08c.06,0,0-.26,0-.31s-.07-.17-.1-.25"/><polyline class="cls-1" points="42.04 35.54 42.03 35.54 42.04 35.54 42.04 35.54"/><path class="cls-1" d="M23.11,35.43s0,0,0,0h0l0,0ZM22,36.31h0m-.27,0a.49.49,0,0,0-.3,0s.08.06-.09.07a.57.57,0,0,1-.33-.09,4.53,4.53,0,0,0,.66-.13l-.07,0a.28.28,0,0,1,.18,0l-.1.05c.09,0,.14-.1.28-.12s.11.07,0,.16a.32.32,0,0,1-.25,0m-1.43.06a.41.41,0,0,1-.11-.06h.14s0,0,0,.05m-.6-.08a1,1,0,0,1-.32,0s0-.09,0-.15l.15,0v.09l0-.08.15,0a0,0,0,0,1,0,0M18.57,36l-.05,0a.56.56,0,0,1-.16-.24l.21.1.11.22-.12-.09m-1.4-1v-.15l.07.08a.16.16,0,0,0-.07.07M16.06,33v0S16,33,16,33v-.18l.06.06v.06l0,.08A.06.06,0,0,1,16,33m8.85-1.63s.06,0,.07,0,0-.12,0,0c-.14-.3-.22-.59-.33-.89a2.38,2.38,0,0,0-.45-.81s0,0,0,0,0-.11-.06-.17L24,29.32c0-.07,0-.05.05-.06-.18-.26-.47-.42-.63-.62-.09,0,0,.07-.13,0,.09,0,0,0,0-.11s-.14-.12-.08-.12c-.14,0-.33-.2-.38-.06-.11-.06-.06-.11,0-.1l-.23-.15-.57,0c-1.38,0-3.83.32-4.74,2.47l-.1,0a5.51,5.51,0,0,1,1.74-2.81.35.35,0,0,0-.28.07,1.68,1.68,0,0,1-.42.22h0c-.26.06-.47.33-.53.34v.06a.62.62,0,0,0-.41.26s0,0,0,0a.37.37,0,0,0-.27.16h0c-.07.07-.13.14-.2.2s0,.12-.13.21-.2.19-.15.27-.19.18-.26.24v0c-.13.05-.12.28-.18.38s-.06,0-.08,0c0,.16-.23.36-.22.43s.05.06.08.1-.14-.07-.14.16c0,0,0-.07,0-.05s.14.27.09.34l0-.06c-.08.14.08.37,0,.38l0,0c0,.26,0,.11,0,.37h0c0,.11.05.17,0,.23v0a1.5,1.5,0,0,0,0,.3.41.41,0,0,0,0,.11c-.07,0,0,.34,0,.4,0-.11,0-.07.06,0a.15.15,0,0,0,0,.2c-.08,0-.17.07-.12.26,0,0,0-.08,0-.07s0,.06,0,.08,0,0,0,0,.06.21.1.4c0-.06,0,0,.07,0s.18.2,0,.18c.11.15.21.35.32.52a1.06,1.06,0,0,0,.29.34c.05,0,.07.12.11.17l0,0c.05.18.07.12.15.32,0-.1,0-.08.11-.05s0,.1,0,.16l.07,0c0,.06.08.09.14.13s0,0,0,0,.17.24.17.3.13.12.22.08l.05.07c-.05,0-.08,0,0,.06h0l0,0a1,1,0,0,0,.13.1h0a.3.3,0,0,1,.11.06.8.8,0,0,1,.3.16.53.53,0,0,0,.34.13s-.09,0-.09,0c.18.07.39.06.49.13l0,0a1.46,1.46,0,0,0,.35.12v0a2.06,2.06,0,0,1,.34.07.41.41,0,0,0,.3,0s.23,0,.33,0l0,0a1.3,1.3,0,0,1,.28,0,4.6,4.6,0,0,1,.7-.11h0l.22,0c-.07,0,.05,0,.11,0a.49.49,0,0,0,.25-.1l.13-.05c-.16,0,0-.06,0-.11h.1s-.07,0,0,0,.22-.08.3-.06,0,0,0,.05h0c.1-.06.07,0,.07,0s.17-.12.2-.24c-.06.15.25-.15.23,0,0-.11.05,0,.06-.13a.72.72,0,0,1-.36.13l.06-.09c-.1,0-.18.14-.25.15s.12-.06.11-.08v.07a.62.62,0,0,1-.35.12c.08-.06-.13,0-.08-.06l.07,0s0,0,0,0a2.21,2.21,0,0,0,.34-.18l0,0,.06,0h0l.33-.21c.05,0,.2,0,.19,0s0-.07.12-.14,0,.12,0,.16.11,0,.12,0,0-.26-.12-.22a.22.22,0,0,1-.15.12l.15-.12.13-.11c0,.05,0,0,.05,0v0l-.05,0A4.22,4.22,0,0,0,24.74,32a2.09,2.09,0,0,0,0-.25c.06.05.11.11.16,0v.08c.06,0,0-.26,0-.31a2.72,2.72,0,0,0-.11-.25"/></g></g></svg>